<mxfile host="Electron" modified="2024-04-22T18:13:18.071Z" agent="Mozilla/5.0 (Macintosh; Intel Mac OS X 10_15_7) AppleWebKit/537.36 (KHTML, like Gecko) draw.io/24.1.0 Chrome/120.0.6099.109 Electron/28.1.0 Safari/537.36" etag="N_S5hK1Raf_gddJ8PzXf" version="24.1.0" type="device" pages="2">
  <diagram name="Page-1" id="2YBvvXClWsGukQMizWep">
    <mxGraphModel dx="954" dy="591" grid="0" gridSize="10" guides="1" tooltips="1" connect="1" arrows="1" fold="1" page="1" pageScale="1" pageWidth="850" pageHeight="1100" math="0" shadow="0">
      <root>
        <mxCell id="0" />
        <mxCell id="1" parent="0" />
        <mxCell id="zrM729WMEHnbK86Mrexk-7" value="" style="line;strokeWidth=1;fillColor=none;align=left;verticalAlign=middle;spacingTop=-1;spacingLeft=3;spacingRight=3;rotatable=0;labelPosition=right;points=[];portConstraint=eastwest;strokeColor=inherit;dashed=1;" parent="1" vertex="1">
          <mxGeometry x="43" y="219" width="590" height="8" as="geometry" />
        </mxCell>
        <mxCell id="aM9ryv3xv72pqoxQDRHE-5" value="SAP BTP - Integration Flow" style="shape=umlLifeline;perimeter=lifelinePerimeter;whiteSpace=wrap;html=1;container=0;dropTarget=0;collapsible=0;recursiveResize=0;outlineConnect=0;portConstraint=eastwest;newEdgeStyle={&quot;edgeStyle&quot;:&quot;elbowEdgeStyle&quot;,&quot;elbow&quot;:&quot;vertical&quot;,&quot;curved&quot;:0,&quot;rounded&quot;:0};" parent="1" vertex="1">
          <mxGeometry x="252" y="40" width="100" height="1210" as="geometry" />
        </mxCell>
        <mxCell id="aM9ryv3xv72pqoxQDRHE-6" value="" style="html=1;points=[];perimeter=orthogonalPerimeter;outlineConnect=0;targetShapes=umlLifeline;portConstraint=eastwest;newEdgeStyle={&quot;edgeStyle&quot;:&quot;elbowEdgeStyle&quot;,&quot;elbow&quot;:&quot;vertical&quot;,&quot;curved&quot;:0,&quot;rounded&quot;:0};" parent="aM9ryv3xv72pqoxQDRHE-5" vertex="1">
          <mxGeometry x="45" y="100" width="10" height="70" as="geometry" />
        </mxCell>
        <mxCell id="aM9ryv3xv72pqoxQDRHE-7" value="US - iFlow call" style="html=1;verticalAlign=bottom;endArrow=block;edgeStyle=elbowEdgeStyle;elbow=vertical;curved=0;rounded=0;" parent="1" edge="1">
          <mxGeometry relative="1" as="geometry">
            <mxPoint x="163" y="140" as="sourcePoint" />
            <Array as="points">
              <mxPoint x="248" y="140" />
            </Array>
            <mxPoint x="298" y="140" as="targetPoint" />
          </mxGeometry>
        </mxCell>
        <mxCell id="aM9ryv3xv72pqoxQDRHE-8" value="" style="html=1;verticalAlign=bottom;endArrow=open;dashed=1;endSize=8;edgeStyle=elbowEdgeStyle;elbow=vertical;curved=0;rounded=0;" parent="1" source="aM9ryv3xv72pqoxQDRHE-6" edge="1">
          <mxGeometry x="0.2609" relative="1" as="geometry">
            <mxPoint x="168" y="210" as="targetPoint" />
            <Array as="points">
              <mxPoint x="268" y="210" />
            </Array>
            <mxPoint x="293" y="210" as="sourcePoint" />
            <mxPoint as="offset" />
          </mxGeometry>
        </mxCell>
        <mxCell id="zrM729WMEHnbK86Mrexk-1" value="SAP BTP &lt;br&gt;HANA DB" style="shape=umlLifeline;perimeter=lifelinePerimeter;whiteSpace=wrap;html=1;container=0;dropTarget=0;collapsible=0;recursiveResize=0;outlineConnect=0;portConstraint=eastwest;newEdgeStyle={&quot;edgeStyle&quot;:&quot;elbowEdgeStyle&quot;,&quot;elbow&quot;:&quot;vertical&quot;,&quot;curved&quot;:0,&quot;rounded&quot;:0};" parent="1" vertex="1">
          <mxGeometry x="387" y="40" width="100" height="1210" as="geometry" />
        </mxCell>
        <mxCell id="zrM729WMEHnbK86Mrexk-2" value="" style="html=1;points=[];perimeter=orthogonalPerimeter;outlineConnect=0;targetShapes=umlLifeline;portConstraint=eastwest;newEdgeStyle={&quot;edgeStyle&quot;:&quot;elbowEdgeStyle&quot;,&quot;elbow&quot;:&quot;vertical&quot;,&quot;curved&quot;:0,&quot;rounded&quot;:0};" parent="zrM729WMEHnbK86Mrexk-1" vertex="1">
          <mxGeometry x="45" y="120" width="10" height="30" as="geometry" />
        </mxCell>
        <mxCell id="zrM729WMEHnbK86Mrexk-3" value="Health Check&lt;br&gt;Integration Suite" style="shape=umlFrame;whiteSpace=wrap;html=1;pointerEvents=0;width=110;height=35;" parent="1" vertex="1">
          <mxGeometry x="43" y="115" width="590" height="1104" as="geometry" />
        </mxCell>
        <mxCell id="zrM729WMEHnbK86Mrexk-4" value="US - DB Operation" style="html=1;verticalAlign=bottom;endArrow=block;edgeStyle=elbowEdgeStyle;elbow=vertical;curved=0;rounded=0;" parent="1" edge="1">
          <mxGeometry relative="1" as="geometry">
            <mxPoint x="307" y="160" as="sourcePoint" />
            <Array as="points">
              <mxPoint x="392" y="160" />
            </Array>
            <mxPoint x="433" y="160" as="targetPoint" />
          </mxGeometry>
        </mxCell>
        <mxCell id="zrM729WMEHnbK86Mrexk-6" value="" style="html=1;verticalAlign=bottom;endArrow=open;dashed=1;endSize=8;edgeStyle=elbowEdgeStyle;elbow=vertical;curved=0;rounded=0;" parent="1" edge="1">
          <mxGeometry relative="1" as="geometry">
            <mxPoint x="307" y="190.07215189873415" as="targetPoint" />
            <Array as="points" />
            <mxPoint x="432" y="190" as="sourcePoint" />
          </mxGeometry>
        </mxCell>
        <mxCell id="zrM729WMEHnbK86Mrexk-9" value="[US region is up]" style="text;align=center;fontStyle=1;verticalAlign=middle;spacingLeft=3;spacingRight=3;strokeColor=none;rotatable=0;points=[[0,0.5],[1,0.5]];portConstraint=eastwest;html=1;" parent="1" vertex="1">
          <mxGeometry x="71" y="171" width="60" height="26" as="geometry" />
        </mxCell>
        <mxCell id="zrM729WMEHnbK86Mrexk-12" value="" style="html=1;points=[];perimeter=orthogonalPerimeter;outlineConnect=0;targetShapes=umlLifeline;portConstraint=eastwest;newEdgeStyle={&quot;edgeStyle&quot;:&quot;elbowEdgeStyle&quot;,&quot;elbow&quot;:&quot;vertical&quot;,&quot;curved&quot;:0,&quot;rounded&quot;:0};" parent="1" vertex="1">
          <mxGeometry x="298" y="418" width="10" height="70" as="geometry" />
        </mxCell>
        <mxCell id="zrM729WMEHnbK86Mrexk-13" value="EU - iFlow call" style="html=1;verticalAlign=bottom;endArrow=block;edgeStyle=elbowEdgeStyle;elbow=vertical;curved=0;rounded=0;" parent="1" edge="1">
          <mxGeometry relative="1" as="geometry">
            <mxPoint x="169" y="420" as="sourcePoint" />
            <Array as="points">
              <mxPoint x="254" y="420" />
            </Array>
            <mxPoint x="298" y="419.9999999999999" as="targetPoint" />
          </mxGeometry>
        </mxCell>
        <mxCell id="zrM729WMEHnbK86Mrexk-14" value="" style="html=1;verticalAlign=bottom;endArrow=open;dashed=1;endSize=8;edgeStyle=elbowEdgeStyle;elbow=vertical;curved=0;rounded=0;" parent="1" source="zrM729WMEHnbK86Mrexk-12" edge="1">
          <mxGeometry x="0.2609" relative="1" as="geometry">
            <mxPoint x="169" y="488" as="targetPoint" />
            <Array as="points">
              <mxPoint x="269" y="488" />
            </Array>
            <mxPoint x="293" y="488" as="sourcePoint" />
            <mxPoint as="offset" />
          </mxGeometry>
        </mxCell>
        <mxCell id="zrM729WMEHnbK86Mrexk-15" value="" style="html=1;points=[];perimeter=orthogonalPerimeter;outlineConnect=0;targetShapes=umlLifeline;portConstraint=eastwest;newEdgeStyle={&quot;edgeStyle&quot;:&quot;elbowEdgeStyle&quot;,&quot;elbow&quot;:&quot;vertical&quot;,&quot;curved&quot;:0,&quot;rounded&quot;:0};" parent="1" vertex="1">
          <mxGeometry x="433" y="438" width="10" height="30" as="geometry" />
        </mxCell>
        <mxCell id="zrM729WMEHnbK86Mrexk-16" value="EU - DB Operation" style="html=1;verticalAlign=bottom;endArrow=block;edgeStyle=elbowEdgeStyle;elbow=vertical;curved=0;rounded=0;" parent="1" edge="1">
          <mxGeometry relative="1" as="geometry">
            <mxPoint x="308" y="438" as="sourcePoint" />
            <Array as="points">
              <mxPoint x="393" y="438" />
            </Array>
            <mxPoint x="433" y="438" as="targetPoint" />
          </mxGeometry>
        </mxCell>
        <mxCell id="zrM729WMEHnbK86Mrexk-17" value="" style="html=1;verticalAlign=bottom;endArrow=open;dashed=1;endSize=8;edgeStyle=elbowEdgeStyle;elbow=vertical;curved=0;rounded=0;" parent="1" source="zrM729WMEHnbK86Mrexk-15" edge="1">
          <mxGeometry relative="1" as="geometry">
            <mxPoint x="308" y="468.1215189873418" as="targetPoint" />
            <Array as="points" />
            <mxPoint x="428" y="468.1" as="sourcePoint" />
          </mxGeometry>
        </mxCell>
        <mxCell id="zrM729WMEHnbK86Mrexk-18" value="Multi-Region Manager Service" style="shape=umlLifeline;perimeter=lifelinePerimeter;whiteSpace=wrap;html=1;container=1;dropTarget=0;collapsible=0;recursiveResize=0;outlineConnect=0;portConstraint=eastwest;newEdgeStyle={&quot;curved&quot;:0,&quot;rounded&quot;:0};labelBackgroundColor=none;" parent="1" vertex="1">
          <mxGeometry x="513" y="40" width="100" height="1210" as="geometry" />
        </mxCell>
        <mxCell id="zrM729WMEHnbK86Mrexk-31" value="" style="html=1;points=[];perimeter=orthogonalPerimeter;outlineConnect=0;targetShapes=umlLifeline;portConstraint=eastwest;newEdgeStyle={&quot;edgeStyle&quot;:&quot;elbowEdgeStyle&quot;,&quot;elbow&quot;:&quot;vertical&quot;,&quot;curved&quot;:0,&quot;rounded&quot;:0};" parent="zrM729WMEHnbK86Mrexk-18" vertex="1">
          <mxGeometry x="45" y="240" width="10" height="136" as="geometry" />
        </mxCell>
        <mxCell id="ogAeGWzkaPnB50WqBr5j-20" value="Background Job" style="html=1;align=left;spacingLeft=2;endArrow=block;rounded=0;edgeStyle=orthogonalEdgeStyle;curved=0;rounded=0;spacingTop=-20;" parent="zrM729WMEHnbK86Mrexk-18" source="zrM729WMEHnbK86Mrexk-31" target="zrM729WMEHnbK86Mrexk-31" edge="1">
          <mxGeometry x="-0.0101" relative="1" as="geometry">
            <mxPoint x="57" y="250.03999999999996" as="sourcePoint" />
            <Array as="points">
              <mxPoint x="87" y="250" />
              <mxPoint x="87" y="280" />
            </Array>
            <mxPoint x="55" y="282" as="targetPoint" />
            <mxPoint as="offset" />
          </mxGeometry>
        </mxCell>
        <mxCell id="zrM729WMEHnbK86Mrexk-30" value="DB Switch Call - Switch to EU region HANA DB" style="html=1;verticalAlign=bottom;endArrow=block;edgeStyle=elbowEdgeStyle;elbow=vertical;curved=0;rounded=0;" parent="1" source="gCyigrRyYRWHMLv8Qtrl-44" edge="1">
          <mxGeometry x="0.002" relative="1" as="geometry">
            <mxPoint x="178" y="286" as="sourcePoint" />
            <Array as="points">
              <mxPoint x="258" y="286" />
            </Array>
            <mxPoint x="558" y="286" as="targetPoint" />
            <mxPoint as="offset" />
          </mxGeometry>
        </mxCell>
        <mxCell id="gCyigrRyYRWHMLv8Qtrl-1" value="" style="line;strokeWidth=1;fillColor=none;align=left;verticalAlign=middle;spacingTop=-1;spacingLeft=3;spacingRight=3;rotatable=0;labelPosition=right;points=[];portConstraint=eastwest;strokeColor=inherit;dashed=1;" parent="1" vertex="1">
          <mxGeometry x="43" y="494" width="590" height="8" as="geometry" />
        </mxCell>
        <mxCell id="gCyigrRyYRWHMLv8Qtrl-42" value="US Alert - US is down" style="html=1;align=left;spacingLeft=2;endArrow=block;rounded=0;edgeStyle=orthogonalEdgeStyle;curved=0;rounded=0;spacingTop=-20;" parent="1" target="gCyigrRyYRWHMLv8Qtrl-44" edge="1">
          <mxGeometry x="-0.0019" relative="1" as="geometry">
            <mxPoint x="168" y="235" as="sourcePoint" />
            <Array as="points">
              <mxPoint x="168" y="240" />
              <mxPoint x="198" y="240" />
              <mxPoint x="198" y="280" />
            </Array>
            <mxPoint x="178" y="270" as="targetPoint" />
            <mxPoint as="offset" />
          </mxGeometry>
        </mxCell>
        <mxCell id="ogAeGWzkaPnB50WqBr5j-14" value="[US region is down]" style="text;align=center;fontStyle=1;verticalAlign=middle;spacingLeft=3;spacingRight=3;strokeColor=none;rotatable=0;points=[[0,0.5],[1,0.5]];portConstraint=eastwest;html=1;" parent="1" vertex="1">
          <mxGeometry x="71" y="230" width="60" height="26" as="geometry" />
        </mxCell>
        <mxCell id="kj1mgStsY-NAxuQ6exf5-1" value="Traffic Manager Profile&lt;br&gt;Update - EU:1, US:2" style="html=1;verticalAlign=bottom;endArrow=open;dashed=1;endSize=8;edgeStyle=elbowEdgeStyle;elbow=vertical;curved=0;rounded=0;" parent="1" target="kj1mgStsY-NAxuQ6exf5-2" edge="1">
          <mxGeometry relative="1" as="geometry">
            <mxPoint x="454" y="326" as="targetPoint" />
            <Array as="points" />
            <mxPoint x="557" y="324" as="sourcePoint" />
          </mxGeometry>
        </mxCell>
        <mxCell id="kj1mgStsY-NAxuQ6exf5-2" value="" style="html=1;points=[];perimeter=orthogonalPerimeter;outlineConnect=0;targetShapes=umlLifeline;portConstraint=eastwest;newEdgeStyle={&quot;edgeStyle&quot;:&quot;elbowEdgeStyle&quot;,&quot;elbow&quot;:&quot;vertical&quot;,&quot;curved&quot;:0,&quot;rounded&quot;:0};" parent="1" vertex="1">
          <mxGeometry x="433" y="320" width="10" height="30" as="geometry" />
        </mxCell>
        <mxCell id="kj1mgStsY-NAxuQ6exf5-3" value="" style="html=1;verticalAlign=bottom;endArrow=open;dashed=1;endSize=8;edgeStyle=elbowEdgeStyle;elbow=vertical;curved=0;rounded=0;" parent="1" target="zrM729WMEHnbK86Mrexk-31" edge="1">
          <mxGeometry relative="1" as="geometry">
            <mxPoint x="556" y="346" as="targetPoint" />
            <Array as="points" />
            <mxPoint x="443" y="346" as="sourcePoint" />
          </mxGeometry>
        </mxCell>
        <mxCell id="PEZ4hFLna6mqaKC0INII-2" value="Drop Remote&lt;br&gt;Subscription from EU" style="html=1;verticalAlign=bottom;endArrow=open;dashed=1;endSize=8;edgeStyle=elbowEdgeStyle;elbow=vertical;curved=0;rounded=0;" parent="1" target="PEZ4hFLna6mqaKC0INII-3" edge="1">
          <mxGeometry relative="1" as="geometry">
            <mxPoint x="454" y="385" as="targetPoint" />
            <Array as="points" />
            <mxPoint x="557" y="383" as="sourcePoint" />
          </mxGeometry>
        </mxCell>
        <mxCell id="PEZ4hFLna6mqaKC0INII-3" value="" style="html=1;points=[];perimeter=orthogonalPerimeter;outlineConnect=0;targetShapes=umlLifeline;portConstraint=eastwest;newEdgeStyle={&quot;edgeStyle&quot;:&quot;elbowEdgeStyle&quot;,&quot;elbow&quot;:&quot;vertical&quot;,&quot;curved&quot;:0,&quot;rounded&quot;:0};" parent="1" vertex="1">
          <mxGeometry x="433" y="379" width="10" height="30" as="geometry" />
        </mxCell>
        <mxCell id="PEZ4hFLna6mqaKC0INII-4" value="" style="html=1;verticalAlign=bottom;endArrow=open;dashed=1;endSize=8;edgeStyle=elbowEdgeStyle;elbow=vertical;curved=0;rounded=0;" parent="1" edge="1">
          <mxGeometry relative="1" as="geometry">
            <mxPoint x="558" y="405" as="targetPoint" />
            <Array as="points" />
            <mxPoint x="443" y="405" as="sourcePoint" />
          </mxGeometry>
        </mxCell>
        <mxCell id="PEZ4hFLna6mqaKC0INII-5" value="&lt;span style=&quot;font-size: 11px; text-wrap: nowrap; background-color: rgb(255, 255, 255);&quot;&gt;&lt;i&gt;Trafic Manager Profile - US:1, EU:2&lt;/i&gt;&lt;/span&gt;" style="text;whiteSpace=wrap;html=1;" parent="1" vertex="1">
          <mxGeometry x="77.5" y="12" width="183" height="25" as="geometry" />
        </mxCell>
        <mxCell id="PEZ4hFLna6mqaKC0INII-6" value="[US region is up]" style="text;align=center;fontStyle=1;verticalAlign=middle;spacingLeft=3;spacingRight=3;strokeColor=none;rotatable=0;points=[[0,0.5],[1,0.5]];portConstraint=eastwest;html=1;" parent="1" vertex="1">
          <mxGeometry x="71" y="498" width="60" height="26" as="geometry" />
        </mxCell>
        <mxCell id="PEZ4hFLna6mqaKC0INII-9" value="" style="html=1;points=[];perimeter=orthogonalPerimeter;outlineConnect=0;targetShapes=umlLifeline;portConstraint=eastwest;newEdgeStyle={&quot;edgeStyle&quot;:&quot;elbowEdgeStyle&quot;,&quot;elbow&quot;:&quot;vertical&quot;,&quot;curved&quot;:0,&quot;rounded&quot;:0};" parent="1" vertex="1">
          <mxGeometry x="558" y="550" width="10" height="77" as="geometry" />
        </mxCell>
        <mxCell id="PEZ4hFLna6mqaKC0INII-10" value="Background Job" style="html=1;align=left;spacingLeft=2;endArrow=block;rounded=0;edgeStyle=orthogonalEdgeStyle;curved=0;rounded=0;spacingTop=-20;" parent="1" source="PEZ4hFLna6mqaKC0INII-9" target="PEZ4hFLna6mqaKC0INII-9" edge="1">
          <mxGeometry x="0.0013" relative="1" as="geometry">
            <mxPoint x="570" y="560.04" as="sourcePoint" />
            <Array as="points">
              <mxPoint x="600" y="560" />
              <mxPoint x="600" y="590" />
            </Array>
            <mxPoint x="568" y="592" as="targetPoint" />
            <mxPoint as="offset" />
          </mxGeometry>
        </mxCell>
        <mxCell id="PEZ4hFLna6mqaKC0INII-11" value="DB Switch Call - Start replication from EU to US" style="html=1;verticalAlign=bottom;endArrow=block;edgeStyle=elbowEdgeStyle;elbow=vertical;curved=0;rounded=0;" parent="1" edge="1">
          <mxGeometry x="0.002" relative="1" as="geometry">
            <mxPoint x="172.9999999999999" y="556" as="sourcePoint" />
            <Array as="points">
              <mxPoint x="258" y="556" />
            </Array>
            <mxPoint x="558" y="556" as="targetPoint" />
            <mxPoint as="offset" />
          </mxGeometry>
        </mxCell>
        <mxCell id="PEZ4hFLna6mqaKC0INII-12" value="US Alert - US is up" style="html=1;align=left;spacingLeft=2;endArrow=block;rounded=0;edgeStyle=orthogonalEdgeStyle;curved=0;rounded=0;spacingTop=-20;" parent="1" edge="1">
          <mxGeometry x="-0.0019" relative="1" as="geometry">
            <mxPoint x="168" y="505" as="sourcePoint" />
            <Array as="points">
              <mxPoint x="168" y="510" />
              <mxPoint x="198" y="510" />
              <mxPoint x="198" y="550" />
            </Array>
            <mxPoint x="172.9999999999999" y="550.0434782608695" as="targetPoint" />
            <mxPoint as="offset" />
          </mxGeometry>
        </mxCell>
        <mxCell id="PEZ4hFLna6mqaKC0INII-13" value="Replication from &lt;br&gt;EU to US" style="html=1;verticalAlign=bottom;endArrow=open;dashed=1;endSize=8;edgeStyle=elbowEdgeStyle;elbow=vertical;curved=0;rounded=0;" parent="1" target="PEZ4hFLna6mqaKC0INII-14" edge="1">
          <mxGeometry relative="1" as="geometry">
            <mxPoint x="454" y="596" as="targetPoint" />
            <Array as="points" />
            <mxPoint x="557" y="594" as="sourcePoint" />
          </mxGeometry>
        </mxCell>
        <mxCell id="PEZ4hFLna6mqaKC0INII-14" value="" style="html=1;points=[];perimeter=orthogonalPerimeter;outlineConnect=0;targetShapes=umlLifeline;portConstraint=eastwest;newEdgeStyle={&quot;edgeStyle&quot;:&quot;elbowEdgeStyle&quot;,&quot;elbow&quot;:&quot;vertical&quot;,&quot;curved&quot;:0,&quot;rounded&quot;:0};" parent="1" vertex="1">
          <mxGeometry x="433" y="590" width="10" height="30" as="geometry" />
        </mxCell>
        <mxCell id="PEZ4hFLna6mqaKC0INII-15" value="" style="html=1;verticalAlign=bottom;endArrow=open;dashed=1;endSize=8;edgeStyle=elbowEdgeStyle;elbow=vertical;curved=0;rounded=0;" parent="1" target="PEZ4hFLna6mqaKC0INII-9" edge="1">
          <mxGeometry relative="1" as="geometry">
            <mxPoint x="556" y="616" as="targetPoint" />
            <Array as="points" />
            <mxPoint x="443" y="616" as="sourcePoint" />
          </mxGeometry>
        </mxCell>
        <mxCell id="PEZ4hFLna6mqaKC0INII-19" value="" style="html=1;points=[];perimeter=orthogonalPerimeter;outlineConnect=0;targetShapes=umlLifeline;portConstraint=eastwest;newEdgeStyle={&quot;edgeStyle&quot;:&quot;elbowEdgeStyle&quot;,&quot;elbow&quot;:&quot;vertical&quot;,&quot;curved&quot;:0,&quot;rounded&quot;:0};" parent="1" vertex="1">
          <mxGeometry x="298" y="630" width="10" height="70" as="geometry" />
        </mxCell>
        <mxCell id="PEZ4hFLna6mqaKC0INII-20" value="EU - iFlow call" style="html=1;verticalAlign=bottom;endArrow=block;edgeStyle=elbowEdgeStyle;elbow=vertical;curved=0;rounded=0;" parent="1" edge="1">
          <mxGeometry relative="1" as="geometry">
            <mxPoint x="169" y="632" as="sourcePoint" />
            <Array as="points">
              <mxPoint x="254" y="632" />
            </Array>
            <mxPoint x="298" y="631.9999999999999" as="targetPoint" />
          </mxGeometry>
        </mxCell>
        <mxCell id="PEZ4hFLna6mqaKC0INII-21" value="" style="html=1;verticalAlign=bottom;endArrow=open;dashed=1;endSize=8;edgeStyle=elbowEdgeStyle;elbow=vertical;curved=0;rounded=0;" parent="1" source="PEZ4hFLna6mqaKC0INII-19" edge="1">
          <mxGeometry x="0.2609" relative="1" as="geometry">
            <mxPoint x="169" y="700" as="targetPoint" />
            <Array as="points">
              <mxPoint x="269" y="700" />
            </Array>
            <mxPoint x="293" y="700" as="sourcePoint" />
            <mxPoint as="offset" />
          </mxGeometry>
        </mxCell>
        <mxCell id="PEZ4hFLna6mqaKC0INII-22" value="" style="html=1;points=[];perimeter=orthogonalPerimeter;outlineConnect=0;targetShapes=umlLifeline;portConstraint=eastwest;newEdgeStyle={&quot;edgeStyle&quot;:&quot;elbowEdgeStyle&quot;,&quot;elbow&quot;:&quot;vertical&quot;,&quot;curved&quot;:0,&quot;rounded&quot;:0};" parent="1" vertex="1">
          <mxGeometry x="433" y="650" width="10" height="30" as="geometry" />
        </mxCell>
        <mxCell id="PEZ4hFLna6mqaKC0INII-23" value="EU - DB Operation" style="html=1;verticalAlign=bottom;endArrow=block;edgeStyle=elbowEdgeStyle;elbow=vertical;curved=0;rounded=0;" parent="1" edge="1">
          <mxGeometry relative="1" as="geometry">
            <mxPoint x="308" y="650" as="sourcePoint" />
            <Array as="points">
              <mxPoint x="393" y="650" />
            </Array>
            <mxPoint x="433" y="650" as="targetPoint" />
          </mxGeometry>
        </mxCell>
        <mxCell id="PEZ4hFLna6mqaKC0INII-24" value="" style="html=1;verticalAlign=bottom;endArrow=open;dashed=1;endSize=8;edgeStyle=elbowEdgeStyle;elbow=vertical;curved=0;rounded=0;" parent="1" source="PEZ4hFLna6mqaKC0INII-22" edge="1">
          <mxGeometry relative="1" as="geometry">
            <mxPoint x="308" y="680.1215189873418" as="targetPoint" />
            <Array as="points" />
            <mxPoint x="428" y="680.1" as="sourcePoint" />
          </mxGeometry>
        </mxCell>
        <mxCell id="PEZ4hFLna6mqaKC0INII-25" value="" style="line;strokeWidth=1;fillColor=none;align=left;verticalAlign=middle;spacingTop=-1;spacingLeft=3;spacingRight=3;rotatable=0;labelPosition=right;points=[];portConstraint=eastwest;strokeColor=inherit;dashed=1;" parent="1" vertex="1">
          <mxGeometry x="43" y="705" width="590" height="8" as="geometry" />
        </mxCell>
        <mxCell id="PEZ4hFLna6mqaKC0INII-47" value="" style="html=1;points=[];perimeter=orthogonalPerimeter;outlineConnect=0;targetShapes=umlLifeline;portConstraint=eastwest;newEdgeStyle={&quot;edgeStyle&quot;:&quot;elbowEdgeStyle&quot;,&quot;elbow&quot;:&quot;vertical&quot;,&quot;curved&quot;:0,&quot;rounded&quot;:0};" parent="1" vertex="1">
          <mxGeometry x="298" y="909" width="10" height="70" as="geometry" />
        </mxCell>
        <mxCell id="PEZ4hFLna6mqaKC0INII-48" value="US - iFlow call" style="html=1;verticalAlign=bottom;endArrow=block;edgeStyle=elbowEdgeStyle;elbow=vertical;curved=0;rounded=0;" parent="1" edge="1">
          <mxGeometry relative="1" as="geometry">
            <mxPoint x="169" y="911" as="sourcePoint" />
            <Array as="points">
              <mxPoint x="254" y="911" />
            </Array>
            <mxPoint x="298" y="910.9999999999999" as="targetPoint" />
          </mxGeometry>
        </mxCell>
        <mxCell id="PEZ4hFLna6mqaKC0INII-49" value="" style="html=1;verticalAlign=bottom;endArrow=open;dashed=1;endSize=8;edgeStyle=elbowEdgeStyle;elbow=vertical;curved=0;rounded=0;" parent="1" source="PEZ4hFLna6mqaKC0INII-47" edge="1">
          <mxGeometry x="0.2609" relative="1" as="geometry">
            <mxPoint x="169" y="979" as="targetPoint" />
            <Array as="points">
              <mxPoint x="269" y="979" />
            </Array>
            <mxPoint x="293" y="979" as="sourcePoint" />
            <mxPoint as="offset" />
          </mxGeometry>
        </mxCell>
        <mxCell id="PEZ4hFLna6mqaKC0INII-50" value="" style="html=1;points=[];perimeter=orthogonalPerimeter;outlineConnect=0;targetShapes=umlLifeline;portConstraint=eastwest;newEdgeStyle={&quot;edgeStyle&quot;:&quot;elbowEdgeStyle&quot;,&quot;elbow&quot;:&quot;vertical&quot;,&quot;curved&quot;:0,&quot;rounded&quot;:0};" parent="1" vertex="1">
          <mxGeometry x="433" y="929" width="10" height="30" as="geometry" />
        </mxCell>
        <mxCell id="PEZ4hFLna6mqaKC0INII-51" value="US - DB Operation" style="html=1;verticalAlign=bottom;endArrow=block;edgeStyle=elbowEdgeStyle;elbow=vertical;curved=0;rounded=0;" parent="1" edge="1">
          <mxGeometry relative="1" as="geometry">
            <mxPoint x="308" y="929" as="sourcePoint" />
            <Array as="points">
              <mxPoint x="393" y="929" />
            </Array>
            <mxPoint x="433" y="929" as="targetPoint" />
          </mxGeometry>
        </mxCell>
        <mxCell id="PEZ4hFLna6mqaKC0INII-52" value="" style="html=1;verticalAlign=bottom;endArrow=open;dashed=1;endSize=8;edgeStyle=elbowEdgeStyle;elbow=vertical;curved=0;rounded=0;" parent="1" source="PEZ4hFLna6mqaKC0INII-50" edge="1">
          <mxGeometry relative="1" as="geometry">
            <mxPoint x="308" y="959.1215189873418" as="targetPoint" />
            <Array as="points" />
            <mxPoint x="428" y="959.1" as="sourcePoint" />
          </mxGeometry>
        </mxCell>
        <mxCell id="PEZ4hFLna6mqaKC0INII-53" value="" style="html=1;points=[];perimeter=orthogonalPerimeter;outlineConnect=0;targetShapes=umlLifeline;portConstraint=eastwest;newEdgeStyle={&quot;edgeStyle&quot;:&quot;elbowEdgeStyle&quot;,&quot;elbow&quot;:&quot;vertical&quot;,&quot;curved&quot;:0,&quot;rounded&quot;:0};" parent="1" vertex="1">
          <mxGeometry x="558" y="771" width="10" height="136" as="geometry" />
        </mxCell>
        <mxCell id="PEZ4hFLna6mqaKC0INII-54" value="Background Job" style="html=1;align=left;spacingLeft=2;endArrow=block;rounded=0;edgeStyle=orthogonalEdgeStyle;curved=0;rounded=0;spacingTop=-20;" parent="1" source="PEZ4hFLna6mqaKC0INII-53" target="PEZ4hFLna6mqaKC0INII-53" edge="1">
          <mxGeometry x="-0.0101" relative="1" as="geometry">
            <mxPoint x="570" y="781.04" as="sourcePoint" />
            <Array as="points">
              <mxPoint x="600" y="781" />
              <mxPoint x="600" y="811" />
            </Array>
            <mxPoint x="568" y="813" as="targetPoint" />
            <mxPoint as="offset" />
          </mxGeometry>
        </mxCell>
        <mxCell id="PEZ4hFLna6mqaKC0INII-55" value="DB Switch Call - Switch to US region HANA DB" style="html=1;verticalAlign=bottom;endArrow=block;edgeStyle=elbowEdgeStyle;elbow=vertical;curved=0;rounded=0;" parent="1" edge="1">
          <mxGeometry x="0.002" relative="1" as="geometry">
            <mxPoint x="172.9999999999999" y="777" as="sourcePoint" />
            <Array as="points">
              <mxPoint x="258" y="777" />
            </Array>
            <mxPoint x="558" y="777" as="targetPoint" />
            <mxPoint as="offset" />
          </mxGeometry>
        </mxCell>
        <mxCell id="PEZ4hFLna6mqaKC0INII-56" value="" style="line;strokeWidth=1;fillColor=none;align=left;verticalAlign=middle;spacingTop=-1;spacingLeft=3;spacingRight=3;rotatable=0;labelPosition=right;points=[];portConstraint=eastwest;strokeColor=inherit;dashed=1;" parent="1" vertex="1">
          <mxGeometry x="43" y="985" width="590" height="8" as="geometry" />
        </mxCell>
        <mxCell id="PEZ4hFLna6mqaKC0INII-57" value="EU Alert - EU is down" style="html=1;align=left;spacingLeft=2;endArrow=block;rounded=0;edgeStyle=orthogonalEdgeStyle;curved=0;rounded=0;spacingTop=-20;" parent="1" edge="1">
          <mxGeometry x="-0.0019" relative="1" as="geometry">
            <mxPoint x="168" y="726" as="sourcePoint" />
            <Array as="points">
              <mxPoint x="168" y="731" />
              <mxPoint x="198" y="731" />
              <mxPoint x="198" y="771" />
            </Array>
            <mxPoint x="172.9999999999999" y="771.0000000000002" as="targetPoint" />
            <mxPoint as="offset" />
          </mxGeometry>
        </mxCell>
        <mxCell id="PEZ4hFLna6mqaKC0INII-58" value="[EU region is down]" style="text;align=center;fontStyle=1;verticalAlign=middle;spacingLeft=3;spacingRight=3;strokeColor=none;rotatable=0;points=[[0,0.5],[1,0.5]];portConstraint=eastwest;html=1;" parent="1" vertex="1">
          <mxGeometry x="71" y="721" width="60" height="26" as="geometry" />
        </mxCell>
        <mxCell id="PEZ4hFLna6mqaKC0INII-60" value="Traffic Manager Profile&lt;br&gt;Update - US:1, EU:2" style="html=1;verticalAlign=bottom;endArrow=open;dashed=1;endSize=8;edgeStyle=elbowEdgeStyle;elbow=vertical;curved=0;rounded=0;" parent="1" target="PEZ4hFLna6mqaKC0INII-61" edge="1">
          <mxGeometry relative="1" as="geometry">
            <mxPoint x="454" y="817" as="targetPoint" />
            <Array as="points" />
            <mxPoint x="557" y="815" as="sourcePoint" />
          </mxGeometry>
        </mxCell>
        <mxCell id="PEZ4hFLna6mqaKC0INII-61" value="" style="html=1;points=[];perimeter=orthogonalPerimeter;outlineConnect=0;targetShapes=umlLifeline;portConstraint=eastwest;newEdgeStyle={&quot;edgeStyle&quot;:&quot;elbowEdgeStyle&quot;,&quot;elbow&quot;:&quot;vertical&quot;,&quot;curved&quot;:0,&quot;rounded&quot;:0};" parent="1" vertex="1">
          <mxGeometry x="433" y="811" width="10" height="30" as="geometry" />
        </mxCell>
        <mxCell id="PEZ4hFLna6mqaKC0INII-62" value="" style="html=1;verticalAlign=bottom;endArrow=open;dashed=1;endSize=8;edgeStyle=elbowEdgeStyle;elbow=vertical;curved=0;rounded=0;" parent="1" target="PEZ4hFLna6mqaKC0INII-53" edge="1">
          <mxGeometry relative="1" as="geometry">
            <mxPoint x="556" y="837" as="targetPoint" />
            <Array as="points" />
            <mxPoint x="443" y="837" as="sourcePoint" />
          </mxGeometry>
        </mxCell>
        <mxCell id="PEZ4hFLna6mqaKC0INII-63" value="Drop Remote&lt;br&gt;Subscription from US" style="html=1;verticalAlign=bottom;endArrow=open;dashed=1;endSize=8;edgeStyle=elbowEdgeStyle;elbow=vertical;curved=0;rounded=0;" parent="1" target="PEZ4hFLna6mqaKC0INII-64" edge="1">
          <mxGeometry relative="1" as="geometry">
            <mxPoint x="454" y="876" as="targetPoint" />
            <Array as="points" />
            <mxPoint x="557" y="874" as="sourcePoint" />
          </mxGeometry>
        </mxCell>
        <mxCell id="PEZ4hFLna6mqaKC0INII-64" value="" style="html=1;points=[];perimeter=orthogonalPerimeter;outlineConnect=0;targetShapes=umlLifeline;portConstraint=eastwest;newEdgeStyle={&quot;edgeStyle&quot;:&quot;elbowEdgeStyle&quot;,&quot;elbow&quot;:&quot;vertical&quot;,&quot;curved&quot;:0,&quot;rounded&quot;:0};" parent="1" vertex="1">
          <mxGeometry x="433" y="870" width="10" height="30" as="geometry" />
        </mxCell>
        <mxCell id="PEZ4hFLna6mqaKC0INII-65" value="" style="html=1;verticalAlign=bottom;endArrow=open;dashed=1;endSize=8;edgeStyle=elbowEdgeStyle;elbow=vertical;curved=0;rounded=0;" parent="1" edge="1">
          <mxGeometry relative="1" as="geometry">
            <mxPoint x="558" y="896" as="targetPoint" />
            <Array as="points" />
            <mxPoint x="443" y="896" as="sourcePoint" />
          </mxGeometry>
        </mxCell>
        <mxCell id="PEZ4hFLna6mqaKC0INII-68" value="" style="html=1;points=[];perimeter=orthogonalPerimeter;outlineConnect=0;targetShapes=umlLifeline;portConstraint=eastwest;newEdgeStyle={&quot;edgeStyle&quot;:&quot;elbowEdgeStyle&quot;,&quot;elbow&quot;:&quot;vertical&quot;,&quot;curved&quot;:0,&quot;rounded&quot;:0};" parent="1" vertex="1">
          <mxGeometry x="558" y="1041" width="10" height="77" as="geometry" />
        </mxCell>
        <mxCell id="PEZ4hFLna6mqaKC0INII-69" value="Background Job" style="html=1;align=left;spacingLeft=2;endArrow=block;rounded=0;edgeStyle=orthogonalEdgeStyle;curved=0;rounded=0;spacingTop=-20;" parent="1" source="PEZ4hFLna6mqaKC0INII-68" target="PEZ4hFLna6mqaKC0INII-68" edge="1">
          <mxGeometry x="0.0013" relative="1" as="geometry">
            <mxPoint x="570" y="1051.04" as="sourcePoint" />
            <Array as="points">
              <mxPoint x="600" y="1051" />
              <mxPoint x="600" y="1081" />
            </Array>
            <mxPoint x="568" y="1083" as="targetPoint" />
            <mxPoint as="offset" />
          </mxGeometry>
        </mxCell>
        <mxCell id="PEZ4hFLna6mqaKC0INII-70" value="DB Switch Call - Start replication from US to EU" style="html=1;verticalAlign=bottom;endArrow=block;edgeStyle=elbowEdgeStyle;elbow=vertical;curved=0;rounded=0;" parent="1" edge="1">
          <mxGeometry x="0.002" relative="1" as="geometry">
            <mxPoint x="172.9999999999999" y="1047" as="sourcePoint" />
            <Array as="points">
              <mxPoint x="258" y="1047" />
            </Array>
            <mxPoint x="558" y="1047" as="targetPoint" />
            <mxPoint as="offset" />
          </mxGeometry>
        </mxCell>
        <mxCell id="PEZ4hFLna6mqaKC0INII-71" value="EU Alert - EU is up" style="html=1;align=left;spacingLeft=2;endArrow=block;rounded=0;edgeStyle=orthogonalEdgeStyle;curved=0;rounded=0;spacingTop=-20;" parent="1" edge="1">
          <mxGeometry x="-0.0019" relative="1" as="geometry">
            <mxPoint x="168" y="996" as="sourcePoint" />
            <Array as="points">
              <mxPoint x="168" y="1001" />
              <mxPoint x="198" y="1001" />
              <mxPoint x="198" y="1041" />
            </Array>
            <mxPoint x="172.9999999999999" y="1041.0000000000002" as="targetPoint" />
            <mxPoint as="offset" />
          </mxGeometry>
        </mxCell>
        <mxCell id="PEZ4hFLna6mqaKC0INII-72" value="Replication from &lt;br&gt;US to EU" style="html=1;verticalAlign=bottom;endArrow=open;dashed=1;endSize=8;edgeStyle=elbowEdgeStyle;elbow=vertical;curved=0;rounded=0;" parent="1" target="PEZ4hFLna6mqaKC0INII-73" edge="1">
          <mxGeometry relative="1" as="geometry">
            <mxPoint x="454" y="1087" as="targetPoint" />
            <Array as="points" />
            <mxPoint x="557" y="1085" as="sourcePoint" />
          </mxGeometry>
        </mxCell>
        <mxCell id="PEZ4hFLna6mqaKC0INII-73" value="" style="html=1;points=[];perimeter=orthogonalPerimeter;outlineConnect=0;targetShapes=umlLifeline;portConstraint=eastwest;newEdgeStyle={&quot;edgeStyle&quot;:&quot;elbowEdgeStyle&quot;,&quot;elbow&quot;:&quot;vertical&quot;,&quot;curved&quot;:0,&quot;rounded&quot;:0};" parent="1" vertex="1">
          <mxGeometry x="433" y="1081" width="10" height="30" as="geometry" />
        </mxCell>
        <mxCell id="PEZ4hFLna6mqaKC0INII-74" value="" style="html=1;verticalAlign=bottom;endArrow=open;dashed=1;endSize=8;edgeStyle=elbowEdgeStyle;elbow=vertical;curved=0;rounded=0;" parent="1" target="PEZ4hFLna6mqaKC0INII-68" edge="1">
          <mxGeometry relative="1" as="geometry">
            <mxPoint x="556" y="1107" as="targetPoint" />
            <Array as="points" />
            <mxPoint x="443" y="1107" as="sourcePoint" />
          </mxGeometry>
        </mxCell>
        <mxCell id="PEZ4hFLna6mqaKC0INII-75" value="" style="html=1;points=[];perimeter=orthogonalPerimeter;outlineConnect=0;targetShapes=umlLifeline;portConstraint=eastwest;newEdgeStyle={&quot;edgeStyle&quot;:&quot;elbowEdgeStyle&quot;,&quot;elbow&quot;:&quot;vertical&quot;,&quot;curved&quot;:0,&quot;rounded&quot;:0};" parent="1" vertex="1">
          <mxGeometry x="298" y="1121" width="10" height="70" as="geometry" />
        </mxCell>
        <mxCell id="PEZ4hFLna6mqaKC0INII-76" value="US - iFlow call" style="html=1;verticalAlign=bottom;endArrow=block;edgeStyle=elbowEdgeStyle;elbow=vertical;curved=0;rounded=0;" parent="1" edge="1">
          <mxGeometry relative="1" as="geometry">
            <mxPoint x="169" y="1123" as="sourcePoint" />
            <Array as="points">
              <mxPoint x="254" y="1123" />
            </Array>
            <mxPoint x="298" y="1123" as="targetPoint" />
          </mxGeometry>
        </mxCell>
        <mxCell id="PEZ4hFLna6mqaKC0INII-77" value="" style="html=1;verticalAlign=bottom;endArrow=open;dashed=1;endSize=8;edgeStyle=elbowEdgeStyle;elbow=vertical;curved=0;rounded=0;" parent="1" source="PEZ4hFLna6mqaKC0INII-75" edge="1">
          <mxGeometry x="0.2609" relative="1" as="geometry">
            <mxPoint x="169" y="1191" as="targetPoint" />
            <Array as="points">
              <mxPoint x="269" y="1191" />
            </Array>
            <mxPoint x="293" y="1191" as="sourcePoint" />
            <mxPoint as="offset" />
          </mxGeometry>
        </mxCell>
        <mxCell id="PEZ4hFLna6mqaKC0INII-78" value="" style="html=1;points=[];perimeter=orthogonalPerimeter;outlineConnect=0;targetShapes=umlLifeline;portConstraint=eastwest;newEdgeStyle={&quot;edgeStyle&quot;:&quot;elbowEdgeStyle&quot;,&quot;elbow&quot;:&quot;vertical&quot;,&quot;curved&quot;:0,&quot;rounded&quot;:0};" parent="1" vertex="1">
          <mxGeometry x="433" y="1141" width="10" height="30" as="geometry" />
        </mxCell>
        <mxCell id="PEZ4hFLna6mqaKC0INII-79" value="US - DB Operation" style="html=1;verticalAlign=bottom;endArrow=block;edgeStyle=elbowEdgeStyle;elbow=vertical;curved=0;rounded=0;" parent="1" edge="1">
          <mxGeometry relative="1" as="geometry">
            <mxPoint x="308" y="1141" as="sourcePoint" />
            <Array as="points">
              <mxPoint x="393" y="1141" />
            </Array>
            <mxPoint x="433" y="1141" as="targetPoint" />
          </mxGeometry>
        </mxCell>
        <mxCell id="PEZ4hFLna6mqaKC0INII-80" value="" style="html=1;verticalAlign=bottom;endArrow=open;dashed=1;endSize=8;edgeStyle=elbowEdgeStyle;elbow=vertical;curved=0;rounded=0;" parent="1" source="PEZ4hFLna6mqaKC0INII-78" edge="1">
          <mxGeometry relative="1" as="geometry">
            <mxPoint x="308" y="1171.121518987342" as="targetPoint" />
            <Array as="points" />
            <mxPoint x="428" y="1171.1" as="sourcePoint" />
          </mxGeometry>
        </mxCell>
        <mxCell id="PEZ4hFLna6mqaKC0INII-81" value="[EU region is up]" style="text;align=center;fontStyle=1;verticalAlign=middle;spacingLeft=3;spacingRight=3;strokeColor=none;rotatable=0;points=[[0,0.5],[1,0.5]];portConstraint=eastwest;html=1;" parent="1" vertex="1">
          <mxGeometry x="71" y="989" width="60" height="26" as="geometry" />
        </mxCell>
        <mxCell id="aM9ryv3xv72pqoxQDRHE-1" value="Azure Traffic Manager" style="shape=umlLifeline;perimeter=lifelinePerimeter;whiteSpace=wrap;html=1;container=0;dropTarget=0;collapsible=0;recursiveResize=0;outlineConnect=0;portConstraint=eastwest;newEdgeStyle={&quot;edgeStyle&quot;:&quot;elbowEdgeStyle&quot;,&quot;elbow&quot;:&quot;vertical&quot;,&quot;curved&quot;:0,&quot;rounded&quot;:0};" parent="1" vertex="1">
          <mxGeometry x="113" y="40" width="100" height="1210" as="geometry" />
        </mxCell>
        <mxCell id="aM9ryv3xv72pqoxQDRHE-2" value="" style="html=1;points=[];perimeter=orthogonalPerimeter;outlineConnect=0;targetShapes=umlLifeline;portConstraint=eastwest;newEdgeStyle={&quot;edgeStyle&quot;:&quot;elbowEdgeStyle&quot;,&quot;elbow&quot;:&quot;vertical&quot;,&quot;curved&quot;:0,&quot;rounded&quot;:0};fillColor=default;" parent="aM9ryv3xv72pqoxQDRHE-1" vertex="1">
          <mxGeometry x="45" y="60" width="10" height="1140" as="geometry" />
        </mxCell>
        <mxCell id="aM9ryv3xv72pqoxQDRHE-3" value="iFlow Call" style="html=1;verticalAlign=bottom;startArrow=oval;endArrow=block;startSize=8;edgeStyle=elbowEdgeStyle;elbow=vertical;curved=0;rounded=0;" parent="aM9ryv3xv72pqoxQDRHE-1" edge="1">
          <mxGeometry relative="1" as="geometry">
            <mxPoint x="-90" y="60" as="sourcePoint" />
            <mxPoint x="45" y="60.001176470588234" as="targetPoint" />
          </mxGeometry>
        </mxCell>
        <mxCell id="gCyigrRyYRWHMLv8Qtrl-44" value="" style="html=1;points=[[0,0,0,0,5],[0,1,0,0,-5],[1,0,0,0,5],[1,1,0,0,-5]];perimeter=orthogonalPerimeter;outlineConnect=0;targetShapes=umlLifeline;portConstraint=eastwest;newEdgeStyle={&quot;curved&quot;:0,&quot;rounded&quot;:0};fillColor=#475E75;strokeColor=none;" parent="aM9ryv3xv72pqoxQDRHE-1" vertex="1">
          <mxGeometry x="50" y="193" width="10" height="61" as="geometry" />
        </mxCell>
        <mxCell id="PEZ4hFLna6mqaKC0INII-82" value="" style="html=1;points=[[0,0,0,0,5],[0,1,0,0,-5],[1,0,0,0,5],[1,1,0,0,-5]];perimeter=orthogonalPerimeter;outlineConnect=0;targetShapes=umlLifeline;portConstraint=eastwest;newEdgeStyle={&quot;curved&quot;:0,&quot;rounded&quot;:0};fillColor=#475E75;strokeColor=none;" parent="aM9ryv3xv72pqoxQDRHE-1" vertex="1">
          <mxGeometry x="50" y="463" width="10" height="61" as="geometry" />
        </mxCell>
        <mxCell id="PEZ4hFLna6mqaKC0INII-83" value="" style="html=1;points=[[0,0,0,0,5],[0,1,0,0,-5],[1,0,0,0,5],[1,1,0,0,-5]];perimeter=orthogonalPerimeter;outlineConnect=0;targetShapes=umlLifeline;portConstraint=eastwest;newEdgeStyle={&quot;curved&quot;:0,&quot;rounded&quot;:0};fillColor=#475E75;strokeColor=none;" parent="aM9ryv3xv72pqoxQDRHE-1" vertex="1">
          <mxGeometry x="50" y="685" width="10" height="61" as="geometry" />
        </mxCell>
        <mxCell id="PEZ4hFLna6mqaKC0INII-84" value="" style="html=1;points=[[0,0,0,0,5],[0,1,0,0,-5],[1,0,0,0,5],[1,1,0,0,-5]];perimeter=orthogonalPerimeter;outlineConnect=0;targetShapes=umlLifeline;portConstraint=eastwest;newEdgeStyle={&quot;curved&quot;:0,&quot;rounded&quot;:0};fillColor=#475E75;strokeColor=none;" parent="aM9ryv3xv72pqoxQDRHE-1" vertex="1">
          <mxGeometry x="50" y="955" width="10" height="61" as="geometry" />
        </mxCell>
      </root>
    </mxGraphModel>
  </diagram>
  <diagram id="QLliTBYGRqZT2yIoCABE" name="Issues">
    <mxGraphModel dx="954" dy="591" grid="0" gridSize="10" guides="1" tooltips="1" connect="1" arrows="1" fold="1" page="1" pageScale="1" pageWidth="827" pageHeight="1169" math="0" shadow="0">
      <root>
        <mxCell id="0" />
        <mxCell id="1" parent="0" />
        <mxCell id="eQxdeCj6rlYhIQ_ke7EY-1" value="" style="line;strokeWidth=1;fillColor=none;align=left;verticalAlign=middle;spacingTop=-1;spacingLeft=3;spacingRight=3;rotatable=0;labelPosition=right;points=[];portConstraint=eastwest;strokeColor=inherit;dashed=1;" parent="1" vertex="1">
          <mxGeometry x="43" y="219" width="590" height="8" as="geometry" />
        </mxCell>
        <mxCell id="eQxdeCj6rlYhIQ_ke7EY-2" value="SAP BTP - Integration Flow" style="shape=umlLifeline;perimeter=lifelinePerimeter;whiteSpace=wrap;html=1;container=0;dropTarget=0;collapsible=0;recursiveResize=0;outlineConnect=0;portConstraint=eastwest;newEdgeStyle={&quot;edgeStyle&quot;:&quot;elbowEdgeStyle&quot;,&quot;elbow&quot;:&quot;vertical&quot;,&quot;curved&quot;:0,&quot;rounded&quot;:0};" parent="1" vertex="1">
          <mxGeometry x="252" y="40" width="100" height="1210" as="geometry" />
        </mxCell>
        <mxCell id="eQxdeCj6rlYhIQ_ke7EY-3" value="" style="html=1;points=[];perimeter=orthogonalPerimeter;outlineConnect=0;targetShapes=umlLifeline;portConstraint=eastwest;newEdgeStyle={&quot;edgeStyle&quot;:&quot;elbowEdgeStyle&quot;,&quot;elbow&quot;:&quot;vertical&quot;,&quot;curved&quot;:0,&quot;rounded&quot;:0};" parent="eQxdeCj6rlYhIQ_ke7EY-2" vertex="1">
          <mxGeometry x="45" y="100" width="10" height="70" as="geometry" />
        </mxCell>
        <mxCell id="eQxdeCj6rlYhIQ_ke7EY-4" value="US - iFlow call" style="html=1;verticalAlign=bottom;endArrow=block;edgeStyle=elbowEdgeStyle;elbow=vertical;curved=0;rounded=0;" parent="1" edge="1">
          <mxGeometry relative="1" as="geometry">
            <mxPoint x="163" y="140" as="sourcePoint" />
            <Array as="points">
              <mxPoint x="248" y="140" />
            </Array>
            <mxPoint x="298" y="140" as="targetPoint" />
          </mxGeometry>
        </mxCell>
        <mxCell id="eQxdeCj6rlYhIQ_ke7EY-5" value="" style="html=1;verticalAlign=bottom;endArrow=open;dashed=1;endSize=8;edgeStyle=elbowEdgeStyle;elbow=vertical;curved=0;rounded=0;" parent="1" source="eQxdeCj6rlYhIQ_ke7EY-3" edge="1">
          <mxGeometry x="0.2609" relative="1" as="geometry">
            <mxPoint x="168" y="210" as="targetPoint" />
            <Array as="points">
              <mxPoint x="268" y="210" />
            </Array>
            <mxPoint x="293" y="210" as="sourcePoint" />
            <mxPoint as="offset" />
          </mxGeometry>
        </mxCell>
        <mxCell id="eQxdeCj6rlYhIQ_ke7EY-6" value="SAP BTP &lt;br&gt;HANA DB" style="shape=umlLifeline;perimeter=lifelinePerimeter;whiteSpace=wrap;html=1;container=0;dropTarget=0;collapsible=0;recursiveResize=0;outlineConnect=0;portConstraint=eastwest;newEdgeStyle={&quot;edgeStyle&quot;:&quot;elbowEdgeStyle&quot;,&quot;elbow&quot;:&quot;vertical&quot;,&quot;curved&quot;:0,&quot;rounded&quot;:0};" parent="1" vertex="1">
          <mxGeometry x="387" y="40" width="100" height="1210" as="geometry" />
        </mxCell>
        <mxCell id="eQxdeCj6rlYhIQ_ke7EY-7" value="" style="html=1;points=[];perimeter=orthogonalPerimeter;outlineConnect=0;targetShapes=umlLifeline;portConstraint=eastwest;newEdgeStyle={&quot;edgeStyle&quot;:&quot;elbowEdgeStyle&quot;,&quot;elbow&quot;:&quot;vertical&quot;,&quot;curved&quot;:0,&quot;rounded&quot;:0};" parent="eQxdeCj6rlYhIQ_ke7EY-6" vertex="1">
          <mxGeometry x="45" y="120" width="10" height="30" as="geometry" />
        </mxCell>
        <mxCell id="eQxdeCj6rlYhIQ_ke7EY-8" value="Health Check&lt;br&gt;Integration Suite" style="shape=umlFrame;whiteSpace=wrap;html=1;pointerEvents=0;width=110;height=35;" parent="1" vertex="1">
          <mxGeometry x="43" y="115" width="590" height="1104" as="geometry" />
        </mxCell>
        <mxCell id="eQxdeCj6rlYhIQ_ke7EY-9" value="US - DB Operation" style="html=1;verticalAlign=bottom;endArrow=block;edgeStyle=elbowEdgeStyle;elbow=vertical;curved=0;rounded=0;" parent="1" edge="1">
          <mxGeometry relative="1" as="geometry">
            <mxPoint x="307" y="160" as="sourcePoint" />
            <Array as="points">
              <mxPoint x="392" y="160" />
            </Array>
            <mxPoint x="433" y="160" as="targetPoint" />
          </mxGeometry>
        </mxCell>
        <mxCell id="eQxdeCj6rlYhIQ_ke7EY-10" value="" style="html=1;verticalAlign=bottom;endArrow=open;dashed=1;endSize=8;edgeStyle=elbowEdgeStyle;elbow=vertical;curved=0;rounded=0;" parent="1" edge="1">
          <mxGeometry relative="1" as="geometry">
            <mxPoint x="307" y="190.07215189873415" as="targetPoint" />
            <Array as="points" />
            <mxPoint x="432" y="190" as="sourcePoint" />
          </mxGeometry>
        </mxCell>
        <mxCell id="eQxdeCj6rlYhIQ_ke7EY-11" value="[US region is up]" style="text;align=center;fontStyle=1;verticalAlign=middle;spacingLeft=3;spacingRight=3;strokeColor=none;rotatable=0;points=[[0,0.5],[1,0.5]];portConstraint=eastwest;html=1;" parent="1" vertex="1">
          <mxGeometry x="71" y="171" width="60" height="26" as="geometry" />
        </mxCell>
        <mxCell id="eQxdeCj6rlYhIQ_ke7EY-12" value="" style="html=1;points=[];perimeter=orthogonalPerimeter;outlineConnect=0;targetShapes=umlLifeline;portConstraint=eastwest;newEdgeStyle={&quot;edgeStyle&quot;:&quot;elbowEdgeStyle&quot;,&quot;elbow&quot;:&quot;vertical&quot;,&quot;curved&quot;:0,&quot;rounded&quot;:0};" parent="1" vertex="1">
          <mxGeometry x="298" y="418" width="10" height="70" as="geometry" />
        </mxCell>
        <mxCell id="eQxdeCj6rlYhIQ_ke7EY-13" value="EU - iFlow call" style="html=1;verticalAlign=bottom;endArrow=block;edgeStyle=elbowEdgeStyle;elbow=vertical;curved=0;rounded=0;" parent="1" edge="1">
          <mxGeometry relative="1" as="geometry">
            <mxPoint x="169" y="420" as="sourcePoint" />
            <Array as="points">
              <mxPoint x="254" y="420" />
            </Array>
            <mxPoint x="298" y="419.9999999999999" as="targetPoint" />
          </mxGeometry>
        </mxCell>
        <mxCell id="eQxdeCj6rlYhIQ_ke7EY-14" value="" style="html=1;verticalAlign=bottom;endArrow=open;dashed=1;endSize=8;edgeStyle=elbowEdgeStyle;elbow=vertical;curved=0;rounded=0;" parent="1" source="eQxdeCj6rlYhIQ_ke7EY-12" edge="1">
          <mxGeometry x="0.2609" relative="1" as="geometry">
            <mxPoint x="169" y="488" as="targetPoint" />
            <Array as="points">
              <mxPoint x="269" y="488" />
            </Array>
            <mxPoint x="293" y="488" as="sourcePoint" />
            <mxPoint as="offset" />
          </mxGeometry>
        </mxCell>
        <mxCell id="eQxdeCj6rlYhIQ_ke7EY-15" value="" style="html=1;points=[];perimeter=orthogonalPerimeter;outlineConnect=0;targetShapes=umlLifeline;portConstraint=eastwest;newEdgeStyle={&quot;edgeStyle&quot;:&quot;elbowEdgeStyle&quot;,&quot;elbow&quot;:&quot;vertical&quot;,&quot;curved&quot;:0,&quot;rounded&quot;:0};" parent="1" vertex="1">
          <mxGeometry x="433" y="438" width="10" height="30" as="geometry" />
        </mxCell>
        <mxCell id="eQxdeCj6rlYhIQ_ke7EY-16" value="EU - DB Operation" style="html=1;verticalAlign=bottom;endArrow=block;edgeStyle=elbowEdgeStyle;elbow=vertical;curved=0;rounded=0;" parent="1" edge="1">
          <mxGeometry relative="1" as="geometry">
            <mxPoint x="308" y="438" as="sourcePoint" />
            <Array as="points">
              <mxPoint x="393" y="438" />
            </Array>
            <mxPoint x="433" y="438" as="targetPoint" />
          </mxGeometry>
        </mxCell>
        <mxCell id="eQxdeCj6rlYhIQ_ke7EY-17" value="" style="html=1;verticalAlign=bottom;endArrow=open;dashed=1;endSize=8;edgeStyle=elbowEdgeStyle;elbow=vertical;curved=0;rounded=0;" parent="1" source="eQxdeCj6rlYhIQ_ke7EY-15" edge="1">
          <mxGeometry relative="1" as="geometry">
            <mxPoint x="308" y="468.1215189873418" as="targetPoint" />
            <Array as="points" />
            <mxPoint x="428" y="468.1" as="sourcePoint" />
          </mxGeometry>
        </mxCell>
        <mxCell id="eQxdeCj6rlYhIQ_ke7EY-18" value="DB Switch Service" style="shape=umlLifeline;perimeter=lifelinePerimeter;whiteSpace=wrap;html=1;container=1;dropTarget=0;collapsible=0;recursiveResize=0;outlineConnect=0;portConstraint=eastwest;newEdgeStyle={&quot;curved&quot;:0,&quot;rounded&quot;:0};labelBackgroundColor=none;" parent="1" vertex="1">
          <mxGeometry x="513" y="40" width="100" height="1210" as="geometry" />
        </mxCell>
        <mxCell id="eQxdeCj6rlYhIQ_ke7EY-19" value="" style="html=1;points=[];perimeter=orthogonalPerimeter;outlineConnect=0;targetShapes=umlLifeline;portConstraint=eastwest;newEdgeStyle={&quot;edgeStyle&quot;:&quot;elbowEdgeStyle&quot;,&quot;elbow&quot;:&quot;vertical&quot;,&quot;curved&quot;:0,&quot;rounded&quot;:0};" parent="eQxdeCj6rlYhIQ_ke7EY-18" vertex="1">
          <mxGeometry x="45" y="240" width="10" height="136" as="geometry" />
        </mxCell>
        <mxCell id="eQxdeCj6rlYhIQ_ke7EY-20" value="Background Job" style="html=1;align=left;spacingLeft=2;endArrow=block;rounded=0;edgeStyle=orthogonalEdgeStyle;curved=0;rounded=0;spacingTop=-20;" parent="eQxdeCj6rlYhIQ_ke7EY-18" source="eQxdeCj6rlYhIQ_ke7EY-19" target="eQxdeCj6rlYhIQ_ke7EY-19" edge="1">
          <mxGeometry x="-0.0101" relative="1" as="geometry">
            <mxPoint x="57" y="250.03999999999996" as="sourcePoint" />
            <Array as="points">
              <mxPoint x="87" y="250" />
              <mxPoint x="87" y="280" />
            </Array>
            <mxPoint x="55" y="282" as="targetPoint" />
            <mxPoint as="offset" />
          </mxGeometry>
        </mxCell>
        <mxCell id="eQxdeCj6rlYhIQ_ke7EY-21" value="DB Switch Call - Switch to EU region HANA DB" style="html=1;verticalAlign=bottom;endArrow=block;edgeStyle=elbowEdgeStyle;elbow=vertical;curved=0;rounded=0;" parent="1" source="eQxdeCj6rlYhIQ_ke7EY-82" edge="1">
          <mxGeometry x="0.002" relative="1" as="geometry">
            <mxPoint x="178" y="286" as="sourcePoint" />
            <Array as="points">
              <mxPoint x="258" y="286" />
            </Array>
            <mxPoint x="558" y="286" as="targetPoint" />
            <mxPoint as="offset" />
          </mxGeometry>
        </mxCell>
        <mxCell id="eQxdeCj6rlYhIQ_ke7EY-22" value="" style="line;strokeWidth=1;fillColor=none;align=left;verticalAlign=middle;spacingTop=-1;spacingLeft=3;spacingRight=3;rotatable=0;labelPosition=right;points=[];portConstraint=eastwest;strokeColor=inherit;dashed=1;" parent="1" vertex="1">
          <mxGeometry x="43" y="494" width="590" height="8" as="geometry" />
        </mxCell>
        <mxCell id="eQxdeCj6rlYhIQ_ke7EY-23" value="US Alert - US is down" style="html=1;align=left;spacingLeft=2;endArrow=block;rounded=0;edgeStyle=orthogonalEdgeStyle;curved=0;rounded=0;spacingTop=-20;" parent="1" target="eQxdeCj6rlYhIQ_ke7EY-82" edge="1">
          <mxGeometry x="-0.0019" relative="1" as="geometry">
            <mxPoint x="168" y="235" as="sourcePoint" />
            <Array as="points">
              <mxPoint x="168" y="240" />
              <mxPoint x="198" y="240" />
              <mxPoint x="198" y="280" />
            </Array>
            <mxPoint x="178" y="270" as="targetPoint" />
            <mxPoint as="offset" />
          </mxGeometry>
        </mxCell>
        <mxCell id="eQxdeCj6rlYhIQ_ke7EY-24" value="[US region is down]" style="text;align=center;fontStyle=1;verticalAlign=middle;spacingLeft=3;spacingRight=3;strokeColor=none;rotatable=0;points=[[0,0.5],[1,0.5]];portConstraint=eastwest;html=1;" parent="1" vertex="1">
          <mxGeometry x="71" y="230" width="60" height="26" as="geometry" />
        </mxCell>
        <mxCell id="eQxdeCj6rlYhIQ_ke7EY-25" value="Traffic Manager Profile&lt;br&gt;Update - EU:1, US:2" style="html=1;verticalAlign=bottom;endArrow=open;dashed=1;endSize=8;edgeStyle=elbowEdgeStyle;elbow=vertical;curved=0;rounded=0;" parent="1" target="eQxdeCj6rlYhIQ_ke7EY-26" edge="1">
          <mxGeometry relative="1" as="geometry">
            <mxPoint x="454" y="326" as="targetPoint" />
            <Array as="points" />
            <mxPoint x="557" y="324" as="sourcePoint" />
          </mxGeometry>
        </mxCell>
        <mxCell id="eQxdeCj6rlYhIQ_ke7EY-26" value="" style="html=1;points=[];perimeter=orthogonalPerimeter;outlineConnect=0;targetShapes=umlLifeline;portConstraint=eastwest;newEdgeStyle={&quot;edgeStyle&quot;:&quot;elbowEdgeStyle&quot;,&quot;elbow&quot;:&quot;vertical&quot;,&quot;curved&quot;:0,&quot;rounded&quot;:0};" parent="1" vertex="1">
          <mxGeometry x="433" y="320" width="10" height="30" as="geometry" />
        </mxCell>
        <mxCell id="eQxdeCj6rlYhIQ_ke7EY-27" value="" style="html=1;verticalAlign=bottom;endArrow=open;dashed=1;endSize=8;edgeStyle=elbowEdgeStyle;elbow=vertical;curved=0;rounded=0;" parent="1" target="eQxdeCj6rlYhIQ_ke7EY-19" edge="1">
          <mxGeometry relative="1" as="geometry">
            <mxPoint x="556" y="346" as="targetPoint" />
            <Array as="points" />
            <mxPoint x="443" y="346" as="sourcePoint" />
          </mxGeometry>
        </mxCell>
        <mxCell id="eQxdeCj6rlYhIQ_ke7EY-28" value="Drop Remote&lt;br&gt;Subscription from EU" style="html=1;verticalAlign=bottom;endArrow=open;dashed=1;endSize=8;edgeStyle=elbowEdgeStyle;elbow=vertical;curved=0;rounded=0;" parent="1" target="eQxdeCj6rlYhIQ_ke7EY-29" edge="1">
          <mxGeometry relative="1" as="geometry">
            <mxPoint x="454" y="385" as="targetPoint" />
            <Array as="points" />
            <mxPoint x="557" y="383" as="sourcePoint" />
          </mxGeometry>
        </mxCell>
        <mxCell id="eQxdeCj6rlYhIQ_ke7EY-29" value="" style="html=1;points=[];perimeter=orthogonalPerimeter;outlineConnect=0;targetShapes=umlLifeline;portConstraint=eastwest;newEdgeStyle={&quot;edgeStyle&quot;:&quot;elbowEdgeStyle&quot;,&quot;elbow&quot;:&quot;vertical&quot;,&quot;curved&quot;:0,&quot;rounded&quot;:0};" parent="1" vertex="1">
          <mxGeometry x="433" y="379" width="10" height="30" as="geometry" />
        </mxCell>
        <mxCell id="eQxdeCj6rlYhIQ_ke7EY-30" value="" style="html=1;verticalAlign=bottom;endArrow=open;dashed=1;endSize=8;edgeStyle=elbowEdgeStyle;elbow=vertical;curved=0;rounded=0;" parent="1" edge="1">
          <mxGeometry relative="1" as="geometry">
            <mxPoint x="558" y="405" as="targetPoint" />
            <Array as="points" />
            <mxPoint x="443" y="405" as="sourcePoint" />
          </mxGeometry>
        </mxCell>
        <mxCell id="eQxdeCj6rlYhIQ_ke7EY-31" value="&lt;span style=&quot;font-size: 11px; text-wrap: nowrap; background-color: rgb(255, 255, 255);&quot;&gt;&lt;i&gt;Trafic Manager Profile - US:1, EU:2&lt;/i&gt;&lt;/span&gt;" style="text;whiteSpace=wrap;html=1;" parent="1" vertex="1">
          <mxGeometry x="77.5" y="12" width="183" height="25" as="geometry" />
        </mxCell>
        <mxCell id="eQxdeCj6rlYhIQ_ke7EY-32" value="[US region is up]" style="text;align=center;fontStyle=1;verticalAlign=middle;spacingLeft=3;spacingRight=3;strokeColor=none;rotatable=0;points=[[0,0.5],[1,0.5]];portConstraint=eastwest;html=1;" parent="1" vertex="1">
          <mxGeometry x="71" y="486" width="60" height="26" as="geometry" />
        </mxCell>
        <mxCell id="eQxdeCj6rlYhIQ_ke7EY-33" value="" style="html=1;points=[];perimeter=orthogonalPerimeter;outlineConnect=0;targetShapes=umlLifeline;portConstraint=eastwest;newEdgeStyle={&quot;edgeStyle&quot;:&quot;elbowEdgeStyle&quot;,&quot;elbow&quot;:&quot;vertical&quot;,&quot;curved&quot;:0,&quot;rounded&quot;:0};" parent="1" vertex="1">
          <mxGeometry x="558" y="550" width="10" height="77" as="geometry" />
        </mxCell>
        <mxCell id="eQxdeCj6rlYhIQ_ke7EY-34" value="Background Job" style="html=1;align=left;spacingLeft=2;endArrow=block;rounded=0;edgeStyle=orthogonalEdgeStyle;curved=0;rounded=0;spacingTop=-20;" parent="1" source="eQxdeCj6rlYhIQ_ke7EY-33" target="eQxdeCj6rlYhIQ_ke7EY-33" edge="1">
          <mxGeometry x="0.0013" relative="1" as="geometry">
            <mxPoint x="570" y="560.04" as="sourcePoint" />
            <Array as="points">
              <mxPoint x="600" y="560" />
              <mxPoint x="600" y="590" />
            </Array>
            <mxPoint x="568" y="592" as="targetPoint" />
            <mxPoint as="offset" />
          </mxGeometry>
        </mxCell>
        <mxCell id="eQxdeCj6rlYhIQ_ke7EY-35" value="DB Switch Call - Start replication from EU to US" style="html=1;verticalAlign=bottom;endArrow=block;edgeStyle=elbowEdgeStyle;elbow=vertical;curved=0;rounded=0;" parent="1" edge="1">
          <mxGeometry x="0.002" relative="1" as="geometry">
            <mxPoint x="172.9999999999999" y="556" as="sourcePoint" />
            <Array as="points">
              <mxPoint x="258" y="556" />
            </Array>
            <mxPoint x="558" y="556" as="targetPoint" />
            <mxPoint as="offset" />
          </mxGeometry>
        </mxCell>
        <mxCell id="eQxdeCj6rlYhIQ_ke7EY-36" value="US Alert - US is up" style="html=1;align=left;spacingLeft=2;endArrow=block;rounded=0;edgeStyle=orthogonalEdgeStyle;curved=0;rounded=0;spacingTop=-20;" parent="1" edge="1">
          <mxGeometry x="-0.0019" relative="1" as="geometry">
            <mxPoint x="168" y="505" as="sourcePoint" />
            <Array as="points">
              <mxPoint x="168" y="510" />
              <mxPoint x="198" y="510" />
              <mxPoint x="198" y="550" />
            </Array>
            <mxPoint x="172.9999999999999" y="550.0434782608695" as="targetPoint" />
            <mxPoint as="offset" />
          </mxGeometry>
        </mxCell>
        <mxCell id="eQxdeCj6rlYhIQ_ke7EY-37" value="Replication from &lt;br&gt;EU to US" style="html=1;verticalAlign=bottom;endArrow=open;dashed=1;endSize=8;edgeStyle=elbowEdgeStyle;elbow=vertical;curved=0;rounded=0;" parent="1" target="eQxdeCj6rlYhIQ_ke7EY-38" edge="1">
          <mxGeometry relative="1" as="geometry">
            <mxPoint x="454" y="596" as="targetPoint" />
            <Array as="points" />
            <mxPoint x="557" y="594" as="sourcePoint" />
          </mxGeometry>
        </mxCell>
        <mxCell id="eQxdeCj6rlYhIQ_ke7EY-38" value="" style="html=1;points=[];perimeter=orthogonalPerimeter;outlineConnect=0;targetShapes=umlLifeline;portConstraint=eastwest;newEdgeStyle={&quot;edgeStyle&quot;:&quot;elbowEdgeStyle&quot;,&quot;elbow&quot;:&quot;vertical&quot;,&quot;curved&quot;:0,&quot;rounded&quot;:0};" parent="1" vertex="1">
          <mxGeometry x="433" y="590" width="10" height="30" as="geometry" />
        </mxCell>
        <mxCell id="eQxdeCj6rlYhIQ_ke7EY-39" value="" style="html=1;verticalAlign=bottom;endArrow=open;dashed=1;endSize=8;edgeStyle=elbowEdgeStyle;elbow=vertical;curved=0;rounded=0;" parent="1" target="eQxdeCj6rlYhIQ_ke7EY-33" edge="1">
          <mxGeometry relative="1" as="geometry">
            <mxPoint x="556" y="616" as="targetPoint" />
            <Array as="points" />
            <mxPoint x="443" y="616" as="sourcePoint" />
          </mxGeometry>
        </mxCell>
        <mxCell id="eQxdeCj6rlYhIQ_ke7EY-40" value="" style="html=1;points=[];perimeter=orthogonalPerimeter;outlineConnect=0;targetShapes=umlLifeline;portConstraint=eastwest;newEdgeStyle={&quot;edgeStyle&quot;:&quot;elbowEdgeStyle&quot;,&quot;elbow&quot;:&quot;vertical&quot;,&quot;curved&quot;:0,&quot;rounded&quot;:0};" parent="1" vertex="1">
          <mxGeometry x="298" y="630" width="10" height="70" as="geometry" />
        </mxCell>
        <mxCell id="eQxdeCj6rlYhIQ_ke7EY-41" value="EU - iFlow call" style="html=1;verticalAlign=bottom;endArrow=block;edgeStyle=elbowEdgeStyle;elbow=vertical;curved=0;rounded=0;" parent="1" edge="1">
          <mxGeometry relative="1" as="geometry">
            <mxPoint x="169" y="632" as="sourcePoint" />
            <Array as="points">
              <mxPoint x="254" y="632" />
            </Array>
            <mxPoint x="298" y="631.9999999999999" as="targetPoint" />
          </mxGeometry>
        </mxCell>
        <mxCell id="eQxdeCj6rlYhIQ_ke7EY-42" value="" style="html=1;verticalAlign=bottom;endArrow=open;dashed=1;endSize=8;edgeStyle=elbowEdgeStyle;elbow=vertical;curved=0;rounded=0;" parent="1" source="eQxdeCj6rlYhIQ_ke7EY-40" edge="1">
          <mxGeometry x="0.2609" relative="1" as="geometry">
            <mxPoint x="169" y="700" as="targetPoint" />
            <Array as="points">
              <mxPoint x="269" y="700" />
            </Array>
            <mxPoint x="293" y="700" as="sourcePoint" />
            <mxPoint as="offset" />
          </mxGeometry>
        </mxCell>
        <mxCell id="eQxdeCj6rlYhIQ_ke7EY-43" value="" style="html=1;points=[];perimeter=orthogonalPerimeter;outlineConnect=0;targetShapes=umlLifeline;portConstraint=eastwest;newEdgeStyle={&quot;edgeStyle&quot;:&quot;elbowEdgeStyle&quot;,&quot;elbow&quot;:&quot;vertical&quot;,&quot;curved&quot;:0,&quot;rounded&quot;:0};" parent="1" vertex="1">
          <mxGeometry x="433" y="650" width="10" height="30" as="geometry" />
        </mxCell>
        <mxCell id="eQxdeCj6rlYhIQ_ke7EY-44" value="EU - DB Operation" style="html=1;verticalAlign=bottom;endArrow=block;edgeStyle=elbowEdgeStyle;elbow=vertical;curved=0;rounded=0;" parent="1" edge="1">
          <mxGeometry relative="1" as="geometry">
            <mxPoint x="308" y="650" as="sourcePoint" />
            <Array as="points">
              <mxPoint x="393" y="650" />
            </Array>
            <mxPoint x="433" y="650" as="targetPoint" />
          </mxGeometry>
        </mxCell>
        <mxCell id="eQxdeCj6rlYhIQ_ke7EY-45" value="" style="html=1;verticalAlign=bottom;endArrow=open;dashed=1;endSize=8;edgeStyle=elbowEdgeStyle;elbow=vertical;curved=0;rounded=0;" parent="1" source="pqhyTRyXQYJKZZgH9PQ5-2" edge="1">
          <mxGeometry relative="1" as="geometry">
            <mxPoint x="308" y="680.1215189873418" as="targetPoint" />
            <Array as="points" />
            <mxPoint x="428" y="680.1" as="sourcePoint" />
          </mxGeometry>
        </mxCell>
        <mxCell id="eQxdeCj6rlYhIQ_ke7EY-46" value="" style="line;strokeWidth=1;fillColor=none;align=left;verticalAlign=middle;spacingTop=-1;spacingLeft=3;spacingRight=3;rotatable=0;labelPosition=right;points=[];portConstraint=eastwest;strokeColor=inherit;dashed=1;" parent="1" vertex="1">
          <mxGeometry x="43" y="705" width="590" height="8" as="geometry" />
        </mxCell>
        <mxCell id="eQxdeCj6rlYhIQ_ke7EY-47" value="" style="html=1;points=[];perimeter=orthogonalPerimeter;outlineConnect=0;targetShapes=umlLifeline;portConstraint=eastwest;newEdgeStyle={&quot;edgeStyle&quot;:&quot;elbowEdgeStyle&quot;,&quot;elbow&quot;:&quot;vertical&quot;,&quot;curved&quot;:0,&quot;rounded&quot;:0};" parent="1" vertex="1">
          <mxGeometry x="298" y="909" width="10" height="70" as="geometry" />
        </mxCell>
        <mxCell id="eQxdeCj6rlYhIQ_ke7EY-48" value="US - iFlow call" style="html=1;verticalAlign=bottom;endArrow=block;edgeStyle=elbowEdgeStyle;elbow=vertical;curved=0;rounded=0;" parent="1" edge="1">
          <mxGeometry relative="1" as="geometry">
            <mxPoint x="169" y="911" as="sourcePoint" />
            <Array as="points">
              <mxPoint x="254" y="911" />
            </Array>
            <mxPoint x="298" y="910.9999999999999" as="targetPoint" />
          </mxGeometry>
        </mxCell>
        <mxCell id="eQxdeCj6rlYhIQ_ke7EY-49" value="" style="html=1;verticalAlign=bottom;endArrow=open;dashed=1;endSize=8;edgeStyle=elbowEdgeStyle;elbow=vertical;curved=0;rounded=0;" parent="1" source="eQxdeCj6rlYhIQ_ke7EY-47" edge="1">
          <mxGeometry x="0.2609" relative="1" as="geometry">
            <mxPoint x="169" y="979" as="targetPoint" />
            <Array as="points">
              <mxPoint x="269" y="979" />
            </Array>
            <mxPoint x="293" y="979" as="sourcePoint" />
            <mxPoint as="offset" />
          </mxGeometry>
        </mxCell>
        <mxCell id="eQxdeCj6rlYhIQ_ke7EY-50" value="" style="html=1;points=[];perimeter=orthogonalPerimeter;outlineConnect=0;targetShapes=umlLifeline;portConstraint=eastwest;newEdgeStyle={&quot;edgeStyle&quot;:&quot;elbowEdgeStyle&quot;,&quot;elbow&quot;:&quot;vertical&quot;,&quot;curved&quot;:0,&quot;rounded&quot;:0};" parent="1" vertex="1">
          <mxGeometry x="433" y="929" width="10" height="30" as="geometry" />
        </mxCell>
        <mxCell id="eQxdeCj6rlYhIQ_ke7EY-51" value="US - DB Operation" style="html=1;verticalAlign=bottom;endArrow=block;edgeStyle=elbowEdgeStyle;elbow=vertical;curved=0;rounded=0;" parent="1" edge="1">
          <mxGeometry relative="1" as="geometry">
            <mxPoint x="308" y="929" as="sourcePoint" />
            <Array as="points">
              <mxPoint x="393" y="929" />
            </Array>
            <mxPoint x="433" y="929" as="targetPoint" />
          </mxGeometry>
        </mxCell>
        <mxCell id="eQxdeCj6rlYhIQ_ke7EY-52" value="" style="html=1;verticalAlign=bottom;endArrow=open;dashed=1;endSize=8;edgeStyle=elbowEdgeStyle;elbow=vertical;curved=0;rounded=0;" parent="1" source="eQxdeCj6rlYhIQ_ke7EY-50" edge="1">
          <mxGeometry relative="1" as="geometry">
            <mxPoint x="308" y="959.1215189873418" as="targetPoint" />
            <Array as="points" />
            <mxPoint x="428" y="959.1" as="sourcePoint" />
          </mxGeometry>
        </mxCell>
        <mxCell id="eQxdeCj6rlYhIQ_ke7EY-53" value="" style="html=1;points=[];perimeter=orthogonalPerimeter;outlineConnect=0;targetShapes=umlLifeline;portConstraint=eastwest;newEdgeStyle={&quot;edgeStyle&quot;:&quot;elbowEdgeStyle&quot;,&quot;elbow&quot;:&quot;vertical&quot;,&quot;curved&quot;:0,&quot;rounded&quot;:0};" parent="1" vertex="1">
          <mxGeometry x="558" y="771" width="10" height="136" as="geometry" />
        </mxCell>
        <mxCell id="eQxdeCj6rlYhIQ_ke7EY-54" value="Background Job" style="html=1;align=left;spacingLeft=2;endArrow=block;rounded=0;edgeStyle=orthogonalEdgeStyle;curved=0;rounded=0;spacingTop=-20;" parent="1" source="eQxdeCj6rlYhIQ_ke7EY-53" target="eQxdeCj6rlYhIQ_ke7EY-53" edge="1">
          <mxGeometry x="-0.0101" relative="1" as="geometry">
            <mxPoint x="570" y="781.04" as="sourcePoint" />
            <Array as="points">
              <mxPoint x="600" y="781" />
              <mxPoint x="600" y="811" />
            </Array>
            <mxPoint x="568" y="813" as="targetPoint" />
            <mxPoint as="offset" />
          </mxGeometry>
        </mxCell>
        <mxCell id="eQxdeCj6rlYhIQ_ke7EY-55" value="DB Switch Call - Switch to US region HANA DB" style="html=1;verticalAlign=bottom;endArrow=block;edgeStyle=elbowEdgeStyle;elbow=vertical;curved=0;rounded=0;" parent="1" edge="1">
          <mxGeometry x="0.002" relative="1" as="geometry">
            <mxPoint x="172.9999999999999" y="777" as="sourcePoint" />
            <Array as="points">
              <mxPoint x="258" y="777" />
            </Array>
            <mxPoint x="558" y="777" as="targetPoint" />
            <mxPoint as="offset" />
          </mxGeometry>
        </mxCell>
        <mxCell id="eQxdeCj6rlYhIQ_ke7EY-56" value="" style="line;strokeWidth=1;fillColor=none;align=left;verticalAlign=middle;spacingTop=-1;spacingLeft=3;spacingRight=3;rotatable=0;labelPosition=right;points=[];portConstraint=eastwest;strokeColor=inherit;dashed=1;" parent="1" vertex="1">
          <mxGeometry x="43" y="985" width="590" height="8" as="geometry" />
        </mxCell>
        <mxCell id="eQxdeCj6rlYhIQ_ke7EY-57" value="EU Alert - EU is down" style="html=1;align=left;spacingLeft=2;endArrow=block;rounded=0;edgeStyle=orthogonalEdgeStyle;curved=0;rounded=0;spacingTop=-20;" parent="1" edge="1">
          <mxGeometry x="-0.0019" relative="1" as="geometry">
            <mxPoint x="168" y="726" as="sourcePoint" />
            <Array as="points">
              <mxPoint x="168" y="731" />
              <mxPoint x="198" y="731" />
              <mxPoint x="198" y="771" />
            </Array>
            <mxPoint x="172.9999999999999" y="771.0000000000002" as="targetPoint" />
            <mxPoint as="offset" />
          </mxGeometry>
        </mxCell>
        <mxCell id="eQxdeCj6rlYhIQ_ke7EY-58" value="[EU region is down]" style="text;align=center;fontStyle=1;verticalAlign=middle;spacingLeft=3;spacingRight=3;strokeColor=none;rotatable=0;points=[[0,0.5],[1,0.5]];portConstraint=eastwest;html=1;" parent="1" vertex="1">
          <mxGeometry x="71" y="721" width="60" height="26" as="geometry" />
        </mxCell>
        <mxCell id="eQxdeCj6rlYhIQ_ke7EY-59" value="Traffic Manager Profile&lt;br&gt;Update - US:1, EU:2" style="html=1;verticalAlign=bottom;endArrow=open;dashed=1;endSize=8;edgeStyle=elbowEdgeStyle;elbow=vertical;curved=0;rounded=0;" parent="1" target="eQxdeCj6rlYhIQ_ke7EY-60" edge="1">
          <mxGeometry relative="1" as="geometry">
            <mxPoint x="454" y="817" as="targetPoint" />
            <Array as="points" />
            <mxPoint x="557" y="815" as="sourcePoint" />
          </mxGeometry>
        </mxCell>
        <mxCell id="eQxdeCj6rlYhIQ_ke7EY-60" value="" style="html=1;points=[];perimeter=orthogonalPerimeter;outlineConnect=0;targetShapes=umlLifeline;portConstraint=eastwest;newEdgeStyle={&quot;edgeStyle&quot;:&quot;elbowEdgeStyle&quot;,&quot;elbow&quot;:&quot;vertical&quot;,&quot;curved&quot;:0,&quot;rounded&quot;:0};" parent="1" vertex="1">
          <mxGeometry x="433" y="811" width="10" height="30" as="geometry" />
        </mxCell>
        <mxCell id="eQxdeCj6rlYhIQ_ke7EY-61" value="" style="html=1;verticalAlign=bottom;endArrow=open;dashed=1;endSize=8;edgeStyle=elbowEdgeStyle;elbow=vertical;curved=0;rounded=0;" parent="1" target="eQxdeCj6rlYhIQ_ke7EY-53" edge="1">
          <mxGeometry relative="1" as="geometry">
            <mxPoint x="556" y="837" as="targetPoint" />
            <Array as="points" />
            <mxPoint x="443" y="837" as="sourcePoint" />
          </mxGeometry>
        </mxCell>
        <mxCell id="eQxdeCj6rlYhIQ_ke7EY-62" value="Drop Remote&lt;br&gt;Subscription from US" style="html=1;verticalAlign=bottom;endArrow=open;dashed=1;endSize=8;edgeStyle=elbowEdgeStyle;elbow=vertical;curved=0;rounded=0;" parent="1" target="eQxdeCj6rlYhIQ_ke7EY-63" edge="1">
          <mxGeometry relative="1" as="geometry">
            <mxPoint x="454" y="876" as="targetPoint" />
            <Array as="points" />
            <mxPoint x="557" y="874" as="sourcePoint" />
          </mxGeometry>
        </mxCell>
        <mxCell id="eQxdeCj6rlYhIQ_ke7EY-63" value="" style="html=1;points=[];perimeter=orthogonalPerimeter;outlineConnect=0;targetShapes=umlLifeline;portConstraint=eastwest;newEdgeStyle={&quot;edgeStyle&quot;:&quot;elbowEdgeStyle&quot;,&quot;elbow&quot;:&quot;vertical&quot;,&quot;curved&quot;:0,&quot;rounded&quot;:0};" parent="1" vertex="1">
          <mxGeometry x="433" y="870" width="10" height="30" as="geometry" />
        </mxCell>
        <mxCell id="eQxdeCj6rlYhIQ_ke7EY-64" value="" style="html=1;verticalAlign=bottom;endArrow=open;dashed=1;endSize=8;edgeStyle=elbowEdgeStyle;elbow=vertical;curved=0;rounded=0;" parent="1" edge="1">
          <mxGeometry relative="1" as="geometry">
            <mxPoint x="558" y="896" as="targetPoint" />
            <Array as="points" />
            <mxPoint x="443" y="896" as="sourcePoint" />
          </mxGeometry>
        </mxCell>
        <mxCell id="eQxdeCj6rlYhIQ_ke7EY-65" value="" style="html=1;points=[];perimeter=orthogonalPerimeter;outlineConnect=0;targetShapes=umlLifeline;portConstraint=eastwest;newEdgeStyle={&quot;edgeStyle&quot;:&quot;elbowEdgeStyle&quot;,&quot;elbow&quot;:&quot;vertical&quot;,&quot;curved&quot;:0,&quot;rounded&quot;:0};" parent="1" vertex="1">
          <mxGeometry x="558" y="1041" width="10" height="77" as="geometry" />
        </mxCell>
        <mxCell id="eQxdeCj6rlYhIQ_ke7EY-66" value="Background Job" style="html=1;align=left;spacingLeft=2;endArrow=block;rounded=0;edgeStyle=orthogonalEdgeStyle;curved=0;rounded=0;spacingTop=-20;" parent="1" source="eQxdeCj6rlYhIQ_ke7EY-65" target="eQxdeCj6rlYhIQ_ke7EY-65" edge="1">
          <mxGeometry x="0.0013" relative="1" as="geometry">
            <mxPoint x="570" y="1051.04" as="sourcePoint" />
            <Array as="points">
              <mxPoint x="600" y="1051" />
              <mxPoint x="600" y="1081" />
            </Array>
            <mxPoint x="568" y="1083" as="targetPoint" />
            <mxPoint as="offset" />
          </mxGeometry>
        </mxCell>
        <mxCell id="eQxdeCj6rlYhIQ_ke7EY-67" value="DB Switch Call - Start replication from US to EU" style="html=1;verticalAlign=bottom;endArrow=block;edgeStyle=elbowEdgeStyle;elbow=vertical;curved=0;rounded=0;" parent="1" edge="1">
          <mxGeometry x="0.002" relative="1" as="geometry">
            <mxPoint x="172.9999999999999" y="1047" as="sourcePoint" />
            <Array as="points">
              <mxPoint x="258" y="1047" />
            </Array>
            <mxPoint x="558" y="1047" as="targetPoint" />
            <mxPoint as="offset" />
          </mxGeometry>
        </mxCell>
        <mxCell id="eQxdeCj6rlYhIQ_ke7EY-68" value="EU Alert - EU is up" style="html=1;align=left;spacingLeft=2;endArrow=block;rounded=0;edgeStyle=orthogonalEdgeStyle;curved=0;rounded=0;spacingTop=-20;" parent="1" edge="1">
          <mxGeometry x="-0.0019" relative="1" as="geometry">
            <mxPoint x="168" y="996" as="sourcePoint" />
            <Array as="points">
              <mxPoint x="168" y="1001" />
              <mxPoint x="198" y="1001" />
              <mxPoint x="198" y="1041" />
            </Array>
            <mxPoint x="172.9999999999999" y="1041.0000000000002" as="targetPoint" />
            <mxPoint as="offset" />
          </mxGeometry>
        </mxCell>
        <mxCell id="eQxdeCj6rlYhIQ_ke7EY-69" value="Replication from &lt;br&gt;US to EU" style="html=1;verticalAlign=bottom;endArrow=open;dashed=1;endSize=8;edgeStyle=elbowEdgeStyle;elbow=vertical;curved=0;rounded=0;" parent="1" target="eQxdeCj6rlYhIQ_ke7EY-70" edge="1">
          <mxGeometry relative="1" as="geometry">
            <mxPoint x="454" y="1087" as="targetPoint" />
            <Array as="points" />
            <mxPoint x="557" y="1085" as="sourcePoint" />
          </mxGeometry>
        </mxCell>
        <mxCell id="eQxdeCj6rlYhIQ_ke7EY-70" value="" style="html=1;points=[];perimeter=orthogonalPerimeter;outlineConnect=0;targetShapes=umlLifeline;portConstraint=eastwest;newEdgeStyle={&quot;edgeStyle&quot;:&quot;elbowEdgeStyle&quot;,&quot;elbow&quot;:&quot;vertical&quot;,&quot;curved&quot;:0,&quot;rounded&quot;:0};" parent="1" vertex="1">
          <mxGeometry x="433" y="1081" width="10" height="30" as="geometry" />
        </mxCell>
        <mxCell id="eQxdeCj6rlYhIQ_ke7EY-71" value="" style="html=1;verticalAlign=bottom;endArrow=open;dashed=1;endSize=8;edgeStyle=elbowEdgeStyle;elbow=vertical;curved=0;rounded=0;" parent="1" target="eQxdeCj6rlYhIQ_ke7EY-65" edge="1">
          <mxGeometry relative="1" as="geometry">
            <mxPoint x="556" y="1107" as="targetPoint" />
            <Array as="points" />
            <mxPoint x="443" y="1107" as="sourcePoint" />
          </mxGeometry>
        </mxCell>
        <mxCell id="eQxdeCj6rlYhIQ_ke7EY-72" value="" style="html=1;points=[];perimeter=orthogonalPerimeter;outlineConnect=0;targetShapes=umlLifeline;portConstraint=eastwest;newEdgeStyle={&quot;edgeStyle&quot;:&quot;elbowEdgeStyle&quot;,&quot;elbow&quot;:&quot;vertical&quot;,&quot;curved&quot;:0,&quot;rounded&quot;:0};" parent="1" vertex="1">
          <mxGeometry x="298" y="1121" width="10" height="70" as="geometry" />
        </mxCell>
        <mxCell id="eQxdeCj6rlYhIQ_ke7EY-73" value="US - iFlow call" style="html=1;verticalAlign=bottom;endArrow=block;edgeStyle=elbowEdgeStyle;elbow=vertical;curved=0;rounded=0;" parent="1" edge="1">
          <mxGeometry relative="1" as="geometry">
            <mxPoint x="169" y="1123" as="sourcePoint" />
            <Array as="points">
              <mxPoint x="254" y="1123" />
            </Array>
            <mxPoint x="298" y="1123" as="targetPoint" />
          </mxGeometry>
        </mxCell>
        <mxCell id="eQxdeCj6rlYhIQ_ke7EY-74" value="" style="html=1;verticalAlign=bottom;endArrow=open;dashed=1;endSize=8;edgeStyle=elbowEdgeStyle;elbow=vertical;curved=0;rounded=0;" parent="1" source="eQxdeCj6rlYhIQ_ke7EY-72" edge="1">
          <mxGeometry x="0.2609" relative="1" as="geometry">
            <mxPoint x="169" y="1191" as="targetPoint" />
            <Array as="points">
              <mxPoint x="269" y="1191" />
            </Array>
            <mxPoint x="293" y="1191" as="sourcePoint" />
            <mxPoint as="offset" />
          </mxGeometry>
        </mxCell>
        <mxCell id="eQxdeCj6rlYhIQ_ke7EY-75" value="" style="html=1;points=[];perimeter=orthogonalPerimeter;outlineConnect=0;targetShapes=umlLifeline;portConstraint=eastwest;newEdgeStyle={&quot;edgeStyle&quot;:&quot;elbowEdgeStyle&quot;,&quot;elbow&quot;:&quot;vertical&quot;,&quot;curved&quot;:0,&quot;rounded&quot;:0};" parent="1" vertex="1">
          <mxGeometry x="433" y="1141" width="10" height="30" as="geometry" />
        </mxCell>
        <mxCell id="eQxdeCj6rlYhIQ_ke7EY-76" value="US - DB Operation" style="html=1;verticalAlign=bottom;endArrow=block;edgeStyle=elbowEdgeStyle;elbow=vertical;curved=0;rounded=0;" parent="1" edge="1">
          <mxGeometry relative="1" as="geometry">
            <mxPoint x="308" y="1141" as="sourcePoint" />
            <Array as="points">
              <mxPoint x="393" y="1141" />
            </Array>
            <mxPoint x="433" y="1141" as="targetPoint" />
          </mxGeometry>
        </mxCell>
        <mxCell id="eQxdeCj6rlYhIQ_ke7EY-77" value="" style="html=1;verticalAlign=bottom;endArrow=open;dashed=1;endSize=8;edgeStyle=elbowEdgeStyle;elbow=vertical;curved=0;rounded=0;" parent="1" source="eQxdeCj6rlYhIQ_ke7EY-75" edge="1">
          <mxGeometry relative="1" as="geometry">
            <mxPoint x="308" y="1171.121518987342" as="targetPoint" />
            <Array as="points" />
            <mxPoint x="428" y="1171.1" as="sourcePoint" />
          </mxGeometry>
        </mxCell>
        <mxCell id="eQxdeCj6rlYhIQ_ke7EY-78" value="[EU region is up]" style="text;align=center;fontStyle=1;verticalAlign=middle;spacingLeft=3;spacingRight=3;strokeColor=none;rotatable=0;points=[[0,0.5],[1,0.5]];portConstraint=eastwest;html=1;" parent="1" vertex="1">
          <mxGeometry x="71" y="989" width="60" height="26" as="geometry" />
        </mxCell>
        <mxCell id="eQxdeCj6rlYhIQ_ke7EY-79" value="Azure Traffic Manager" style="shape=umlLifeline;perimeter=lifelinePerimeter;whiteSpace=wrap;html=1;container=0;dropTarget=0;collapsible=0;recursiveResize=0;outlineConnect=0;portConstraint=eastwest;newEdgeStyle={&quot;edgeStyle&quot;:&quot;elbowEdgeStyle&quot;,&quot;elbow&quot;:&quot;vertical&quot;,&quot;curved&quot;:0,&quot;rounded&quot;:0};" parent="1" vertex="1">
          <mxGeometry x="113" y="40" width="100" height="1210" as="geometry" />
        </mxCell>
        <mxCell id="eQxdeCj6rlYhIQ_ke7EY-80" value="" style="html=1;points=[];perimeter=orthogonalPerimeter;outlineConnect=0;targetShapes=umlLifeline;portConstraint=eastwest;newEdgeStyle={&quot;edgeStyle&quot;:&quot;elbowEdgeStyle&quot;,&quot;elbow&quot;:&quot;vertical&quot;,&quot;curved&quot;:0,&quot;rounded&quot;:0};fillColor=default;" parent="eQxdeCj6rlYhIQ_ke7EY-79" vertex="1">
          <mxGeometry x="45" y="60" width="10" height="1140" as="geometry" />
        </mxCell>
        <mxCell id="eQxdeCj6rlYhIQ_ke7EY-81" value="iFlow Call" style="html=1;verticalAlign=bottom;startArrow=oval;endArrow=block;startSize=8;edgeStyle=elbowEdgeStyle;elbow=vertical;curved=0;rounded=0;" parent="eQxdeCj6rlYhIQ_ke7EY-79" edge="1">
          <mxGeometry relative="1" as="geometry">
            <mxPoint x="-90" y="60" as="sourcePoint" />
            <mxPoint x="45" y="60.001176470588234" as="targetPoint" />
          </mxGeometry>
        </mxCell>
        <mxCell id="eQxdeCj6rlYhIQ_ke7EY-82" value="" style="html=1;points=[[0,0,0,0,5],[0,1,0,0,-5],[1,0,0,0,5],[1,1,0,0,-5]];perimeter=orthogonalPerimeter;outlineConnect=0;targetShapes=umlLifeline;portConstraint=eastwest;newEdgeStyle={&quot;curved&quot;:0,&quot;rounded&quot;:0};fillColor=#475E75;strokeColor=none;" parent="eQxdeCj6rlYhIQ_ke7EY-79" vertex="1">
          <mxGeometry x="50" y="193" width="10" height="61" as="geometry" />
        </mxCell>
        <mxCell id="eQxdeCj6rlYhIQ_ke7EY-83" value="" style="html=1;points=[[0,0,0,0,5],[0,1,0,0,-5],[1,0,0,0,5],[1,1,0,0,-5]];perimeter=orthogonalPerimeter;outlineConnect=0;targetShapes=umlLifeline;portConstraint=eastwest;newEdgeStyle={&quot;curved&quot;:0,&quot;rounded&quot;:0};fillColor=#475E75;strokeColor=none;" parent="eQxdeCj6rlYhIQ_ke7EY-79" vertex="1">
          <mxGeometry x="50" y="463" width="10" height="61" as="geometry" />
        </mxCell>
        <mxCell id="eQxdeCj6rlYhIQ_ke7EY-84" value="" style="html=1;points=[[0,0,0,0,5],[0,1,0,0,-5],[1,0,0,0,5],[1,1,0,0,-5]];perimeter=orthogonalPerimeter;outlineConnect=0;targetShapes=umlLifeline;portConstraint=eastwest;newEdgeStyle={&quot;curved&quot;:0,&quot;rounded&quot;:0};fillColor=#475E75;strokeColor=none;" parent="eQxdeCj6rlYhIQ_ke7EY-79" vertex="1">
          <mxGeometry x="50" y="685" width="10" height="61" as="geometry" />
        </mxCell>
        <mxCell id="eQxdeCj6rlYhIQ_ke7EY-85" value="" style="html=1;points=[[0,0,0,0,5],[0,1,0,0,-5],[1,0,0,0,5],[1,1,0,0,-5]];perimeter=orthogonalPerimeter;outlineConnect=0;targetShapes=umlLifeline;portConstraint=eastwest;newEdgeStyle={&quot;curved&quot;:0,&quot;rounded&quot;:0};fillColor=#475E75;strokeColor=none;" parent="eQxdeCj6rlYhIQ_ke7EY-79" vertex="1">
          <mxGeometry x="50" y="955" width="10" height="61" as="geometry" />
        </mxCell>
        <mxCell id="wOaXs0ut-IeGdJWLywh3-1" value="&lt;font color=&quot;#ff0000&quot; style=&quot;&quot; size=&quot;1&quot;&gt;&lt;b style=&quot;font-size: 11px;&quot;&gt;Secondary HANA DB is Down when switching iFlow calls to Secondary region and will be the same case for Primary switching as well&lt;/b&gt;&lt;/font&gt;" style="text;html=1;align=left;verticalAlign=middle;whiteSpace=wrap;rounded=0;labelBackgroundColor=#e5e5e5;" parent="1" vertex="1">
          <mxGeometry x="16" y="306" width="138" height="30" as="geometry" />
        </mxCell>
        <mxCell id="wOaXs0ut-IeGdJWLywh3-2" value="&lt;b style=&quot;color: rgb(255, 0, 0); font-family: Helvetica; font-style: normal; font-variant-ligatures: normal; font-variant-caps: normal; letter-spacing: normal; orphans: 2; text-align: center; text-indent: 0px; text-transform: none; widows: 2; word-spacing: 0px; -webkit-text-stroke-width: 0px; white-space: normal; text-decoration-thickness: initial; text-decoration-style: initial; text-decoration-color: initial;&quot;&gt;&lt;u style=&quot;&quot;&gt;&lt;font style=&quot;font-size: 12px;&quot;&gt;Problem 1&lt;/font&gt;&lt;/u&gt;&lt;/b&gt;" style="text;whiteSpace=wrap;html=1;labelBackgroundColor=#e5e5e5;" parent="1" vertex="1">
          <mxGeometry x="16" y="252" width="68" height="30" as="geometry" />
        </mxCell>
        <mxCell id="wOaXs0ut-IeGdJWLywh3-3" value="&lt;b style=&quot;color: rgb(255, 0, 0); font-size: 11px;&quot;&gt;-&amp;gt; Both DB Switch &amp;amp; iFlow will run in parallel.&lt;/b&gt;&lt;div&gt;&lt;b style=&quot;color: rgb(255, 0, 0); font-size: 11px;&quot;&gt;-&amp;gt; Alert rule triggering the &#39;DB Switch&#39; will take 1-5 minutes.&amp;nbsp;&lt;/b&gt;&lt;br&gt;&lt;b style=&quot;color: rgb(255, 0, 0); font-size: 11px;&quot;&gt;-&amp;gt; DNS switch will take around 30 seconds for the iFlow calls.&lt;/b&gt;&lt;br&gt;&lt;b style=&quot;color: rgb(255, 0, 0); font-size: 11px;&quot;&gt;-&amp;gt; All iFlow calls after DNS switch will fail from around &lt;br&gt;30 sec - 5 min mark.&lt;/b&gt;&lt;/div&gt;" style="text;html=1;align=left;verticalAlign=top;whiteSpace=wrap;rounded=0;labelBackgroundColor=#e5e5e5;" parent="1" vertex="1">
          <mxGeometry x="16" y="392" width="168" height="111" as="geometry" />
        </mxCell>
        <mxCell id="wOaXs0ut-IeGdJWLywh3-4" value="&lt;b style=&quot;color: rgb(255, 0, 0); font-family: Helvetica; font-style: normal; font-variant-ligatures: normal; font-variant-caps: normal; letter-spacing: normal; orphans: 2; text-align: center; text-indent: 0px; text-transform: none; widows: 2; word-spacing: 0px; -webkit-text-stroke-width: 0px; white-space: normal; text-decoration-thickness: initial; text-decoration-style: initial; text-decoration-color: initial;&quot;&gt;&lt;u style=&quot;&quot;&gt;&lt;font style=&quot;font-size: 12px;&quot;&gt;Problem 2&lt;/font&gt;&lt;/u&gt;&lt;/b&gt;" style="text;whiteSpace=wrap;html=1;labelBackgroundColor=#e5e5e5;" parent="1" vertex="1">
          <mxGeometry x="16" y="374" width="68" height="30" as="geometry" />
        </mxCell>
        <mxCell id="pqhyTRyXQYJKZZgH9PQ5-1" value="" style="rounded=0;whiteSpace=wrap;html=1;strokeColor=none;fillColor=#f7f3f3;opacity=80;" parent="1" vertex="1">
          <mxGeometry x="4" y="5" width="680" height="223" as="geometry" />
        </mxCell>
        <mxCell id="pqhyTRyXQYJKZZgH9PQ5-3" value="" style="html=1;verticalAlign=bottom;endArrow=open;dashed=1;endSize=8;edgeStyle=elbowEdgeStyle;elbow=vertical;curved=0;rounded=0;" parent="1" source="eQxdeCj6rlYhIQ_ke7EY-43" target="pqhyTRyXQYJKZZgH9PQ5-2" edge="1">
          <mxGeometry relative="1" as="geometry">
            <mxPoint x="308" y="680.1215189873418" as="targetPoint" />
            <Array as="points" />
            <mxPoint x="433" y="680" as="sourcePoint" />
          </mxGeometry>
        </mxCell>
        <mxCell id="pqhyTRyXQYJKZZgH9PQ5-2" value="" style="rounded=0;whiteSpace=wrap;html=1;strokeColor=none;fillColor=#f7f3f3;opacity=80;" parent="1" vertex="1">
          <mxGeometry x="16" y="536" width="667" height="223" as="geometry" />
        </mxCell>
      </root>
    </mxGraphModel>
  </diagram>
</mxfile>
